<?xml version="1.0" encoding="UTF-8" standalone="no"?>
<!DOCTYPE svg PUBLIC "-//W3C//DTD SVG 1.1//EN"
 "http://www.w3.org/Graphics/SVG/1.1/DTD/svg11.dtd">
<!-- Generated by graphviz version 2.43.0 (0)
 -->
<!-- Title: WebArenaMemory Pages: 1 -->
<svg width="801pt" height="174pt"
 viewBox="0.00 0.00 801.00 174.00" xmlns="http://www.w3.org/2000/svg" xmlns:xlink="http://www.w3.org/1999/xlink">
<g id="graph0" class="graph" transform="scale(1 1) rotate(0) translate(4 170)">
<title>WebArenaMemory</title>
<polygon fill="white" stroke="transparent" points="-4,4 -4,-170 797,-170 797,4 -4,4"/>
<!-- START -->
<g id="node1" class="node">
<title>START</title>
<path fill="none" stroke="black" d="M52,-82C52,-82 12,-82 12,-82 6,-82 0,-76 0,-70 0,-70 0,-58 0,-58 0,-52 6,-46 12,-46 12,-46 52,-46 52,-46 58,-46 64,-52 64,-58 64,-58 64,-70 64,-70 64,-76 58,-82 52,-82"/>
<text text-anchor="middle" x="32" y="-60.3" font-family="Times,serif" font-size="14.00">START</text>
</g>
<!-- click -->
<g id="node2" class="node">
<title>click</title>
<path fill="none" stroke="black" d="M298,-133C298,-133 268,-133 268,-133 262,-133 256,-127 256,-121 256,-121 256,-109 256,-109 256,-103 262,-97 268,-97 268,-97 298,-97 298,-97 304,-97 310,-103 310,-109 310,-109 310,-121 310,-121 310,-127 304,-133 298,-133"/>
<text text-anchor="middle" x="283" y="-111.3" font-family="Times,serif" font-size="14.00">click</text>
</g>
<!-- START&#45;&gt;click -->
<g id="edge1" class="edge">
<title>START&#45;&gt;click</title>
<path fill="none" stroke="black" d="M64.21,-76.59C70.09,-78.82 76.21,-81.05 82,-83 137.35,-101.59 205.04,-109.53 245.77,-112.81"/>
<polygon fill="black" stroke="black" points="245.54,-116.3 255.77,-113.57 246.06,-109.32 245.54,-116.3"/>
<text text-anchor="middle" x="137" y="-105.8" font-family="Times,serif" font-size="14.00">6</text>
</g>
<!-- fill -->
<g id="node3" class="node">
<title>fill</title>
<path fill="none" stroke="black" d="M152,-82C152,-82 122,-82 122,-82 116,-82 110,-76 110,-70 110,-70 110,-58 110,-58 110,-52 116,-46 122,-46 122,-46 152,-46 152,-46 158,-46 164,-52 164,-58 164,-58 164,-70 164,-70 164,-76 158,-82 152,-82"/>
<text text-anchor="middle" x="137" y="-60.3" font-family="Times,serif" font-size="14.00">fill</text>
</g>
<!-- START&#45;&gt;fill -->
<g id="edge2" class="edge">
<title>START&#45;&gt;fill</title>
<path fill="none" stroke="black" d="M64.18,-64C75.33,-64 88,-64 99.56,-64"/>
<polygon fill="black" stroke="black" points="99.78,-67.5 109.78,-64 99.78,-60.5 99.78,-67.5"/>
<text text-anchor="middle" x="87" y="-67.8" font-family="Times,serif" font-size="14.00">1</text>
</g>
<!-- scroll -->
<g id="node4" class="node">
<title>scroll</title>
<path fill="none" stroke="black" d="M226,-36C226,-36 194,-36 194,-36 188,-36 182,-30 182,-24 182,-24 182,-12 182,-12 182,-6 188,0 194,0 194,0 226,0 226,0 232,0 238,-6 238,-12 238,-12 238,-24 238,-24 238,-30 232,-36 226,-36"/>
<text text-anchor="middle" x="210" y="-14.3" font-family="Times,serif" font-size="14.00">scroll</text>
</g>
<!-- START&#45;&gt;scroll -->
<g id="edge3" class="edge">
<title>START&#45;&gt;scroll</title>
<path fill="none" stroke="black" d="M64.21,-51.41C70.09,-49.18 76.21,-46.95 82,-45 111.49,-35.09 146.08,-28.02 171.71,-23.61"/>
<polygon fill="black" stroke="black" points="172.47,-27.03 181.76,-21.93 171.32,-20.13 172.47,-27.03"/>
<text text-anchor="middle" x="87" y="-48.8" font-family="Times,serif" font-size="14.00">1</text>
</g>
<!-- click&#45;&gt;click -->
<g id="edge5" class="edge">
<title>click&#45;&gt;click</title>
<path fill="none" stroke="black" d="M273.95,-133.15C272.56,-142.54 275.58,-151 283,-151 287.52,-151 290.41,-147.86 291.66,-143.28"/>
<polygon fill="black" stroke="black" points="295.16,-143.28 292.05,-133.15 288.17,-143.01 295.16,-143.28"/>
<text text-anchor="middle" x="283" y="-154.8" font-family="Times,serif" font-size="14.00">12</text>
</g>
<!-- SUCCESS -->
<g id="node5" class="node">
<title>SUCCESS</title>
<path fill="none" stroke="black" d="M781,-156C781,-156 716,-156 716,-156 710,-156 704,-150 704,-144 704,-144 704,-132 704,-132 704,-126 710,-120 716,-120 716,-120 781,-120 781,-120 787,-120 793,-126 793,-132 793,-132 793,-144 793,-144 793,-150 787,-156 781,-156"/>
<text text-anchor="middle" x="748.5" y="-134.3" font-family="Times,serif" font-size="14.00">SUCCESS</text>
</g>
<!-- click&#45;&gt;SUCCESS -->
<g id="edge4" class="edge">
<title>click&#45;&gt;SUCCESS</title>
<path fill="none" stroke="black" d="M310.27,-128.03C323.6,-133.81 340.27,-139.8 356,-142 475.58,-158.75 617.72,-150.33 693.53,-143.6"/>
<polygon fill="black" stroke="black" points="694.14,-147.06 703.78,-142.67 693.5,-140.09 694.14,-147.06"/>
<text text-anchor="middle" x="489" y="-154.8" font-family="Times,serif" font-size="14.00">2</text>
</g>
<!-- select_option -->
<g id="node6" class="node">
<title>select_option</title>
<path fill="none" stroke="black" d="M454,-133C454,-133 368,-133 368,-133 362,-133 356,-127 356,-121 356,-121 356,-109 356,-109 356,-103 362,-97 368,-97 368,-97 454,-97 454,-97 460,-97 466,-103 466,-109 466,-109 466,-121 466,-121 466,-127 460,-133 454,-133"/>
<text text-anchor="middle" x="411" y="-111.3" font-family="Times,serif" font-size="14.00">select_option</text>
</g>
<!-- click&#45;&gt;select_option -->
<g id="edge6" class="edge">
<title>click&#45;&gt;select_option</title>
<path fill="none" stroke="black" d="M310.11,-115C320.57,-115 333.14,-115 345.76,-115"/>
<polygon fill="black" stroke="black" points="345.87,-118.5 355.87,-115 345.87,-111.5 345.87,-118.5"/>
<text text-anchor="middle" x="333" y="-118.8" font-family="Times,serif" font-size="14.00">1</text>
</g>
<!-- send_msg_to_user -->
<g id="node7" class="node">
<title>send_msg_to_user</title>
<path fill="none" stroke="black" d="M646,-108C646,-108 524,-108 524,-108 518,-108 512,-102 512,-96 512,-96 512,-84 512,-84 512,-78 518,-72 524,-72 524,-72 646,-72 646,-72 652,-72 658,-78 658,-84 658,-84 658,-96 658,-96 658,-102 652,-108 646,-108"/>
<text text-anchor="middle" x="585" y="-86.3" font-family="Times,serif" font-size="14.00">send_msg_to_user</text>
</g>
<!-- click&#45;&gt;send_msg_to_user -->
<g id="edge7" class="edge">
<title>click&#45;&gt;send_msg_to_user</title>
<path fill="none" stroke="black" d="M307.55,-96.97C320.96,-87.85 338.54,-77.72 356,-73 403.28,-60.22 457.95,-63.71 501.9,-70.75"/>
<polygon fill="black" stroke="black" points="501.53,-74.24 511.97,-72.46 502.7,-67.34 501.53,-74.24"/>
<text text-anchor="middle" x="411" y="-76.8" font-family="Times,serif" font-size="14.00">4</text>
</g>
<!-- fill&#45;&gt;click -->
<g id="edge8" class="edge">
<title>fill&#45;&gt;click</title>
<path fill="none" stroke="black" d="M164.13,-68.39C184.7,-72.35 213.83,-79.08 238,-89 240.86,-90.17 243.76,-91.51 246.64,-92.95"/>
<polygon fill="black" stroke="black" points="245.18,-96.13 255.64,-97.77 248.48,-89.96 245.18,-96.13"/>
<text text-anchor="middle" x="210" y="-92.8" font-family="Times,serif" font-size="14.00">1</text>
</g>
<!-- scroll&#45;&gt;send_msg_to_user -->
<g id="edge9" class="edge">
<title>scroll&#45;&gt;send_msg_to_user</title>
<path fill="none" stroke="black" d="M238.13,-21.31C288.78,-27.72 401,-43.09 494,-64 500.98,-65.57 508.22,-67.37 515.43,-69.27"/>
<polygon fill="black" stroke="black" points="514.63,-72.68 525.2,-71.92 516.46,-65.92 514.63,-72.68"/>
<text text-anchor="middle" x="333" y="-38.8" font-family="Times,serif" font-size="14.00">1</text>
</g>
<!-- select_option&#45;&gt;send_msg_to_user -->
<g id="edge10" class="edge">
<title>select_option&#45;&gt;send_msg_to_user</title>
<path fill="none" stroke="black" d="M466.42,-107.09C477.72,-105.45 489.87,-103.68 501.92,-101.93"/>
<polygon fill="black" stroke="black" points="502.6,-105.37 511.99,-100.47 501.59,-98.44 502.6,-105.37"/>
<text text-anchor="middle" x="489" y="-106.8" font-family="Times,serif" font-size="14.00">1</text>
</g>
<!-- send_msg_to_user&#45;&gt;SUCCESS -->
<g id="edge11" class="edge">
<title>send_msg_to_user&#45;&gt;SUCCESS</title>
<path fill="none" stroke="black" d="M646.6,-108.01C662.16,-112.64 678.79,-117.58 693.97,-122.09"/>
<polygon fill="black" stroke="black" points="693.13,-125.49 703.71,-124.99 695.12,-118.78 693.13,-125.49"/>
<text text-anchor="middle" x="681" y="-122.8" font-family="Times,serif" font-size="14.00">6</text>
</g>
</g>
</svg>
