<svg xmlns="http://www.w3.org/2000/svg" width="2400" height="1650" viewBox="0 0 2400 1650">
<defs>
<marker id="arrow" markerWidth="10" markerHeight="10" refX="9" refY="3" orient="auto" markerUnits="strokeWidth">
<path d="M0,0 L0,6 L9,3 z" fill="#475569"/>
</marker>
<filter id="softShadow" x="-20%" y="-20%" width="140%" height="140%">
<feDropShadow dx="0" dy="2" stdDeviation="2" flood-opacity="0.12"/>
</filter>
</defs>
<rect width="100%" height="100%" fill="white"/>
<rect x="70" y="500" width="830" height="185" rx="22" fill="#eff6ff" stroke="#94a3b8" stroke-width="2.4"/>
<rect x="88" y="482" width="260" height="34" rx="8" fill="white" stroke="#94a3b8" stroke-width="2"/>
<text x="104" y="505" font-family="Inter, Helvetica, Arial, sans-serif" font-size="18" font-weight="700" fill="#1e293b">Online interaction</text>
<rect x="960" y="500" width="1330" height="735" rx="22" fill="#faf5ff" stroke="#a78bfa" stroke-width="2.4"/>
<rect x="978" y="482" width="396" height="34" rx="8" fill="white" stroke="#a78bfa" stroke-width="2"/>
<text x="994" y="505" font-family="Inter, Helvetica, Arial, sans-serif" font-size="18" font-weight="700" fill="#1e293b">Memory-augmented decision process</text>
<rect x="470" y="70" width="1620" height="255" rx="22" fill="#f0fdf4" stroke="#86efac" stroke-width="2.4"/>
<rect x="488" y="52" width="324" height="34" rx="8" fill="white" stroke="#86efac" stroke-width="2"/>
<text x="504" y="75" font-family="Inter, Helvetica, Arial, sans-serif" font-size="18" font-weight="700" fill="#1e293b">Long-term procedural memory</text>
<rect x="290" y="1360" width="1580" height="220" rx="22" fill="#fff7ed" stroke="#fdba74" stroke-width="2.4"/>
<rect x="308" y="1342" width="260" height="34" rx="8" fill="white" stroke="#fdba74" stroke-width="2"/>
<text x="324" y="1365" font-family="Inter, Helvetica, Arial, sans-serif" font-size="18" font-weight="700" fill="#1e293b">Post-task learning</text>
<path d="M330 600 H395" fill="none" stroke="white" stroke-width="9"/>
<path d="M330 600 H395" fill="none" stroke="#475569" stroke-width="3" marker-end="url(#arrow)"/>
<path d="M660 600 H725" fill="none" stroke="white" stroke-width="9"/>
<path d="M660 600 H725" fill="none" stroke="#475569" stroke-width="3" marker-end="url(#arrow)"/>
<path d="M990 600 H1065" fill="none" stroke="white" stroke-width="9"/>
<path d="M990 600 H1065" fill="none" stroke="#475569" stroke-width="3" marker-end="url(#arrow)"/>
<path d="M1330 600 H1410" fill="none" stroke="white" stroke-width="9"/>
<path d="M1330 600 H1410" fill="none" stroke="#475569" stroke-width="3" marker-end="url(#arrow)"/>
<path d="M1705 600 H1775" fill="none" stroke="white" stroke-width="9"/>
<path d="M1705 600 H1775" fill="none" stroke="#475569" stroke-width="3" marker-end="url(#arrow)"/>
<path d="M1895 660 V760 H1700 V815" fill="none" stroke="white" stroke-width="9"/>
<path d="M1895 660 V760 H1700 V815" fill="none" stroke="#475569" stroke-width="3" marker-end="url(#arrow)"/>
<text x="1810" y="746" font-family="Inter, Helvetica, Arial, sans-serif" font-size="17" fill="#1e293b"><tspan fill="white" stroke="white" stroke-width="5">yes</tspan><tspan x="1810" y="746">yes</tspan></text>
<path d="M1895 660 V760 H2110 V815" fill="none" stroke="white" stroke-width="9"/>
<path d="M1895 660 V760 H2110 V815" fill="none" stroke="#475569" stroke-width="3" marker-end="url(#arrow)"/>
<text x="1995" y="746" font-family="Inter, Helvetica, Arial, sans-serif" font-size="17" fill="#1e293b"><tspan fill="white" stroke="white" stroke-width="5">no</tspan><tspan x="1995" y="746">no</tspan></text>
<path d="M1700 915 V975 H1825 V1000" fill="none" stroke="white" stroke-width="9"/>
<path d="M1700 915 V975 H1825 V1000" fill="none" stroke="#475569" stroke-width="3" marker-end="url(#arrow)"/>
<path d="M2110 915 V975 H1965 V1000" fill="none" stroke="white" stroke-width="9"/>
<path d="M2110 915 V975 H1965 V1000" fill="none" stroke="#475569" stroke-width="3" marker-end="url(#arrow)"/>
<path d="M1895 1120 V1170" fill="none" stroke="white" stroke-width="9"/>
<path d="M1895 1120 V1170" fill="none" stroke="#475569" stroke-width="3" marker-end="url(#arrow)"/>
<path d="M1895 1280 V1474" fill="none" stroke="white" stroke-width="9"/>
<path d="M1895 1280 V1474" fill="none" stroke="#475569" stroke-width="3" marker-end="url(#arrow)"/>
<path d="M1786 1530 L1755 1470" fill="none" stroke="white" stroke-width="9"/>
<path d="M1786 1530 L1755 1470" fill="none" stroke="#475569" stroke-width="3" marker-end="url(#arrow)"/>
<text x="1762" y="1518" font-family="Inter, Helvetica, Arial, sans-serif" font-size="17" fill="#1e293b"><tspan fill="white" stroke="white" stroke-width="5">yes</tspan><tspan x="1762" y="1518">yes</tspan></text>
<path d="M1465 1470 H1375" fill="none" stroke="white" stroke-width="9"/>
<path d="M1465 1470 H1375" fill="none" stroke="#475569" stroke-width="3" marker-end="url(#arrow)"/>
<path d="M1085 1470 H995" fill="none" stroke="white" stroke-width="9"/>
<path d="M1085 1470 H995" fill="none" stroke="#475569" stroke-width="3" marker-end="url(#arrow)"/>
<path d="M705 1470 H615" fill="none" stroke="white" stroke-width="9"/>
<path d="M705 1470 H615" fill="none" stroke="#475569" stroke-width="3" marker-end="url(#arrow)"/>
<path d="M1555 325 V545" fill="none" stroke="white" stroke-width="8.5" stroke-dasharray="10 8"/>
<path d="M1555 325 V545" fill="none" stroke="#475569" stroke-width="2.5" stroke-dasharray="10 8" marker-end="url(#arrow)"/>
<path d="M325 1470 H20 V185 H470" fill="none" stroke="white" stroke-width="8.5" stroke-dasharray="10 8"/>
<path d="M325 1470 H20 V185 H470" fill="none" stroke="#475569" stroke-width="2.5" stroke-dasharray="10 8" marker-end="url(#arrow)"/>
<path d="M1786 1530 H1030 V700 H700 V600 H725" fill="none" stroke="white" stroke-width="8.5" stroke-dasharray="3 7"/>
<path d="M1786 1530 H1030 V700 H700 V600 H725" fill="none" stroke="#475569" stroke-width="2.5" stroke-dasharray="3 7" marker-end="url(#arrow)"/>
<text x="1050" y="715" font-family="Inter, Helvetica, Arial, sans-serif" font-size="17" fill="#1e293b"><tspan fill="white" stroke="white" stroke-width="5">no: observe next state</tspan><tspan x="1050" y="715">no: observe next state</tspan></text>
<path d="M 560 148 C 560 128 820 128 820 148 L 820 222 C 820 242 560 242 560 222 Z" fill="#ede9fe" stroke="#8b5cf6" stroke-width="3"/>
<ellipse cx="690" cy="148" rx="130.0" ry="18" fill="#ede9fe" stroke="#8b5cf6" stroke-width="3"/>
<text x="690" y="177" text-anchor="middle" font-family="Inter, Helvetica, Arial, sans-serif" fill="#1e293b">
<tspan x="690" dy="0" font-size="20" font-weight="700">Vector index</tspan>
<tspan x="690" dy="25" font-size="14" font-style="italic">HNSW-SQ8 / PQ / binary</tspan>
</text>
<path d="M 950 148 C 950 128 1210 128 1210 148 L 1210 222 C 1210 242 950 242 950 222 Z" fill="#dcfce7" stroke="#22c55e" stroke-width="3"/>
<ellipse cx="1080" cy="148" rx="130.0" ry="18" fill="#dcfce7" stroke="#22c55e" stroke-width="3"/>
<text x="1080" y="177" text-anchor="middle" font-family="Inter, Helvetica, Arial, sans-serif" fill="#1e293b">
<tspan x="1080" dy="0" font-size="20" font-weight="700">Procedural memory</tspan>
<tspan x="1080" dy="25" font-size="14" font-style="italic">reusable workflows</tspan>
</text>
<path d="M 1340 148 C 1340 128 1600 128 1600 148 L 1600 222 C 1600 242 1340 242 1340 222 Z" fill="#dcfce7" stroke="#22c55e" stroke-width="3"/>
<ellipse cx="1470" cy="148" rx="130.0" ry="18" fill="#dcfce7" stroke="#22c55e" stroke-width="3"/>
<text x="1470" y="177" text-anchor="middle" font-family="Inter, Helvetica, Arial, sans-serif" fill="#1e293b">
<tspan x="1470" dy="0" font-size="20" font-weight="700">Relation graph</tspan>
<tspan x="1470" dy="25" font-size="14" font-style="italic">families, steps, outcomes</tspan>
</text>
<path d="M 1730 148 C 1730 128 1990 128 1990 148 L 1990 222 C 1990 242 1730 242 1730 222 Z" fill="#fee2e2" stroke="#ef4444" stroke-width="3"/>
<ellipse cx="1860" cy="148" rx="130.0" ry="18" fill="#fee2e2" stroke="#ef4444" stroke-width="3"/>
<text x="1860" y="177" text-anchor="middle" font-family="Inter, Helvetica, Arial, sans-serif" fill="#1e293b">
<tspan x="1860" dy="0" font-size="20" font-weight="700">Negative memory</tspan>
<tspan x="1860" dy="25" font-size="14" font-style="italic">failures + avoid rules</tspan>
</text>
<rect x="70" y="550" width="260" height="100" rx="14" fill="#dbeafe" stroke="#60a5fa" stroke-width="3"/>
<text x="200" y="590" text-anchor="middle" font-family="Inter, Helvetica, Arial, sans-serif" fill="#1e293b">
<tspan x="200" dy="0" font-size="22" font-weight="700">User task</tspan>
<tspan x="200" dy="25" font-size="16" font-style="italic">natural-language goal</tspan>
</text>
<rect x="400" y="550" width="260" height="100" rx="14" fill="#e0f2fe" stroke="#38bdf8" stroke-width="3"/>
<text x="530" y="590" text-anchor="middle" font-family="Inter, Helvetica, Arial, sans-serif" fill="#1e293b">
<tspan x="530" dy="0" font-size="22" font-weight="700">Web environment</tspan>
<tspan x="530" dy="25" font-size="16" font-style="italic">live WebArena site</tspan>
</text>
<rect x="730" y="550" width="260" height="100" rx="14" fill="#e0f2fe" stroke="#38bdf8" stroke-width="3"/>
<text x="860" y="590" text-anchor="middle" font-family="Inter, Helvetica, Arial, sans-serif" fill="#1e293b">
<tspan x="860" dy="0" font-size="22" font-weight="700">Observation encoder</tspan>
<tspan x="860" dy="25" font-size="16" font-style="italic">page state + action history</tspan>
</text>
<rect x="1070" y="550" width="260" height="100" rx="14" fill="#ede9fe" stroke="#8b5cf6" stroke-width="3"/>
<text x="1200" y="590" text-anchor="middle" font-family="Inter, Helvetica, Arial, sans-serif" fill="#1e293b">
<tspan x="1200" dy="0" font-size="22" font-weight="700">Memory query</tspan>
<tspan x="1200" dy="25" font-size="16" font-style="italic">goal + page context</tspan>
</text>
<rect x="1405" y="550" width="300" height="100" rx="14" fill="#ede9fe" stroke="#8b5cf6" stroke-width="3"/>
<text x="1555" y="590" text-anchor="middle" font-family="Inter, Helvetica, Arial, sans-serif" fill="#1e293b">
<tspan x="1555" dy="0" font-size="22" font-weight="700">Hybrid retrieval</tspan>
<tspan x="1555" dy="25" font-size="16" font-style="italic">vector + graph + metadata</tspan>
</text>
<polygon points="1895,538 2015,600 1895,662 1775,600" fill="#ffedd5" stroke="#f59e0b" stroke-width="3"/>
<text x="1895" y="592" text-anchor="middle" font-family="Inter, Helvetica, Arial, sans-serif" fill="#1e293b">
<tspan x="1895" dy="0" font-size="20" font-weight="700">Reusable</tspan>
<tspan x="1895" dy="25" font-size="14" font-style="italic">memory?</tspan>
</text>
<rect x="1565" y="820" width="270" height="100" rx="14" fill="#ede9fe" stroke="#8b5cf6" stroke-width="3"/>
<text x="1700" y="860" text-anchor="middle" font-family="Inter, Helvetica, Arial, sans-serif" fill="#1e293b">
<tspan x="1700" dy="0" font-size="22" font-weight="700">Retrieved procedure</tspan>
<tspan x="1700" dy="25" font-size="16" font-style="italic">compact policy card</tspan>
</text>
<rect x="1975" y="820" width="270" height="100" rx="14" fill="#ede9fe" stroke="#8b5cf6" stroke-width="3"/>
<text x="2110" y="860" text-anchor="middle" font-family="Inter, Helvetica, Arial, sans-serif" fill="#1e293b">
<tspan x="2110" dy="0" font-size="22" font-weight="700">Fallback policy</tspan>
<tspan x="2110" dy="25" font-size="16" font-style="italic">solve from page only</tspan>
</text>
<rect x="1750" y="1010" width="290" height="110" rx="14" fill="#e0f2fe" stroke="#38bdf8" stroke-width="3"/>
<text x="1895" y="1055" text-anchor="middle" font-family="Inter, Helvetica, Arial, sans-serif" fill="#1e293b">
<tspan x="1895" dy="0" font-size="22" font-weight="700">Prompt composer</tspan>
<tspan x="1895" dy="25" font-size="16" font-style="italic">task + page + advice</tspan>
</text>
<rect x="1750" y="1170" width="290" height="110" rx="14" fill="#e0f2fe" stroke="#38bdf8" stroke-width="3"/>
<text x="1895" y="1215" text-anchor="middle" font-family="Inter, Helvetica, Arial, sans-serif" fill="#1e293b">
<tspan x="1895" dy="0" font-size="22" font-weight="700">LLM action policy</tspan>
<tspan x="1895" dy="25" font-size="16" font-style="italic">choose next web action</tspan>
</text>
<rect x="1750" y="1335" width="290" height="110" rx="14" fill="#e0f2fe" stroke="#38bdf8" stroke-width="3"/>
<text x="1895" y="1380" text-anchor="middle" font-family="Inter, Helvetica, Arial, sans-serif" fill="#1e293b">
<tspan x="1895" dy="0" font-size="22" font-weight="700">Browser action</tspan>
<tspan x="1895" dy="25" font-size="16" font-style="italic">execute in Playwright</tspan>
</text>
<polygon points="1895,1474 2005,1530 1895,1586 1785,1530" fill="#ffedd5" stroke="#f59e0b" stroke-width="3"/>
<text x="1895" y="1522" text-anchor="middle" font-family="Inter, Helvetica, Arial, sans-serif" fill="#1e293b">
<tspan x="1895" dy="0" font-size="20" font-weight="700">Task</tspan>
<tspan x="1895" dy="25" font-size="14" font-style="italic">finished?</tspan>
</text>
<rect x="1465" y="1418" width="290" height="104" rx="14" fill="#ffedd5" stroke="#f59e0b" stroke-width="3"/>
<text x="1610" y="1460" text-anchor="middle" font-family="Inter, Helvetica, Arial, sans-serif" fill="#1e293b">
<tspan x="1610" dy="0" font-size="22" font-weight="700">WebArena evaluator</tspan>
<tspan x="1610" dy="25" font-size="16" font-style="italic">reward, steps, time, errors</tspan>
</text>
<rect x="1085" y="1418" width="290" height="104" rx="14" fill="#ffedd5" stroke="#f59e0b" stroke-width="3"/>
<text x="1230" y="1460" text-anchor="middle" font-family="Inter, Helvetica, Arial, sans-serif" fill="#1e293b">
<tspan x="1230" dy="0" font-size="22" font-weight="700">Execution trace</tspan>
<tspan x="1230" dy="25" font-size="16" font-style="italic">observations + actions</tspan>
</text>
<rect x="705" y="1418" width="290" height="104" rx="14" fill="#ede9fe" stroke="#8b5cf6" stroke-width="3"/>
<text x="850" y="1460" text-anchor="middle" font-family="Inter, Helvetica, Arial, sans-serif" fill="#1e293b">
<tspan x="850" dy="0" font-size="22" font-weight="700">Procedure abstraction</tspan>
<tspan x="850" dy="25" font-size="16" font-style="italic">generalize the trace</tspan>
</text>
<rect x="325" y="1418" width="290" height="104" rx="14" fill="#dcfce7" stroke="#22c55e" stroke-width="3"/>
<text x="470" y="1460" text-anchor="middle" font-family="Inter, Helvetica, Arial, sans-serif" fill="#1e293b">
<tspan x="470" dy="0" font-size="22" font-weight="700">Memory consolidation</tspan>
<tspan x="470" dy="25" font-size="16" font-style="italic">update stores + index</tspan>
</text>
<g transform="translate(80,80)"><path d="M0 0 H70" fill="none" stroke="#475569" stroke-width="3" marker-end="url(#arrow)"/><text x="86" y="6" font-family="Inter, Helvetica, Arial, sans-serif" font-size="17" fill="#1e293b">control flow</text><path d="M0 35 H70" fill="none" stroke="#475569" stroke-width="2.5" stroke-dasharray="10 8" marker-end="url(#arrow)"/><text x="86" y="41" font-family="Inter, Helvetica, Arial, sans-serif" font-size="17" fill="#1e293b">memory/data dependency</text><path d="M0 70 H70" fill="none" stroke="#475569" stroke-width="2.5" stroke-dasharray="3 7" marker-end="url(#arrow)"/><text x="86" y="76" font-family="Inter, Helvetica, Arial, sans-serif" font-size="17" fill="#1e293b">feedback loop</text></g>
</svg>