<?xml version="1.0" encoding="UTF-8" standalone="no"?>
<!DOCTYPE svg PUBLIC "-//W3C//DTD SVG 1.1//EN"
 "http://www.w3.org/Graphics/SVG/1.1/DTD/svg11.dtd">
<!-- Generated by graphviz version 2.43.0 (0)
 -->
<!-- Title: WebArenaMemoryFlow Pages: 1 -->
<svg width="3142pt" height="1378pt"
 viewBox="0.00 0.00 3142.00 1378.00" xmlns="http://www.w3.org/2000/svg" xmlns:xlink="http://www.w3.org/1999/xlink">
<g id="graph0" class="graph" transform="scale(1 1) rotate(0) translate(4 1374)">
<title>WebArenaMemoryFlow</title>
<polygon fill="white" stroke="transparent" points="-4,4 -4,-1374 3138,-1374 3138,4 -4,4"/>
<text text-anchor="middle" x="1567" y="-1350" font-family="Helvetica,sans-Serif" font-size="20.00">Detailed WebArena Procedural Memory Architecture</text>
<g id="clust1" class="cluster">
<title>cluster_runtime</title>
<path fill="white" stroke="#93c5fd" d="M20,-177.5C20,-177.5 304,-177.5 304,-177.5 310,-177.5 316,-183.5 316,-189.5 316,-189.5 316,-759.5 316,-759.5 316,-765.5 310,-771.5 304,-771.5 304,-771.5 20,-771.5 20,-771.5 14,-771.5 8,-765.5 8,-759.5 8,-759.5 8,-189.5 8,-189.5 8,-183.5 14,-177.5 20,-177.5"/>
<text text-anchor="middle" x="162" y="-751.5" font-family="Helvetica,sans-Serif" font-size="20.00">Runtime: One WebArena Task</text>
</g>
<g id="clust2" class="cluster">
<title>cluster_memory_stores</title>
<path fill="white" stroke="#86efac" d="M1717,-417C1717,-417 2983,-417 2983,-417 2989,-417 2995,-423 2995,-429 2995,-429 2995,-603 2995,-603 2995,-609 2989,-615 2983,-615 2983,-615 1717,-615 1717,-615 1711,-615 1705,-609 1705,-603 1705,-603 1705,-429 1705,-429 1705,-423 1711,-417 1717,-417"/>
<text text-anchor="middle" x="2350" y="-595" font-family="Helvetica,sans-Serif" font-size="20.00">Memory Stores On Disk</text>
</g>
<g id="clust3" class="cluster">
<title>cluster_retrieval</title>
<path fill="white" stroke="#c4b5fd" d="M1207,-8C1207,-8 1685,-8 1685,-8 1691,-8 1697,-14 1697,-20 1697,-20 1697,-564.5 1697,-564.5 1697,-570.5 1691,-576.5 1685,-576.5 1685,-576.5 1207,-576.5 1207,-576.5 1201,-576.5 1195,-570.5 1195,-564.5 1195,-564.5 1195,-20 1195,-20 1195,-14 1201,-8 1207,-8"/>
<text text-anchor="middle" x="1446" y="-556.5" font-family="Helvetica,sans-Serif" font-size="20.00">Retrieval + Scoring</text>
</g>
<g id="clust4" class="cluster">
<title>cluster_prompt_action</title>
<path fill="white" stroke="#f9a8d4" d="M336,-460C336,-460 842,-460 842,-460 848,-460 854,-466 854,-472 854,-472 854,-1320 854,-1320 854,-1326 848,-1332 842,-1332 842,-1332 336,-1332 336,-1332 330,-1332 324,-1326 324,-1320 324,-1320 324,-472 324,-472 324,-466 330,-460 336,-460"/>
<text text-anchor="middle" x="589" y="-1312" font-family="Helvetica,sans-Serif" font-size="20.00">Prompting + Action Execution</text>
</g>
<g id="clust5" class="cluster">
<title>cluster_storage</title>
<path fill="white" stroke="#fdba74" d="M874,-311C874,-311 1094,-311 1094,-311 1100,-311 1106,-317 1106,-323 1106,-323 1106,-1156 1106,-1156 1106,-1162 1100,-1168 1094,-1168 1094,-1168 874,-1168 874,-1168 868,-1168 862,-1162 862,-1156 862,-1156 862,-323 862,-323 862,-317 868,-311 874,-311"/>
<text text-anchor="middle" x="984" y="-1148" font-family="Helvetica,sans-Serif" font-size="20.00">Post&#45;Task Learning</text>
</g>
<!-- user_query -->
<g id="node1" class="node">
<title>user_query</title>
<path fill="#dbeafe" stroke="#2563eb" d="M290.5,-703.5C290.5,-703.5 91.5,-703.5 91.5,-703.5 85.5,-703.5 79.5,-697.5 79.5,-691.5 79.5,-691.5 79.5,-670.5 79.5,-670.5 79.5,-664.5 85.5,-658.5 91.5,-658.5 91.5,-658.5 290.5,-658.5 290.5,-658.5 296.5,-658.5 302.5,-664.5 302.5,-670.5 302.5,-670.5 302.5,-691.5 302.5,-691.5 302.5,-697.5 296.5,-703.5 290.5,-703.5"/>
<text text-anchor="middle" x="191" y="-689.5" font-family="Helvetica,sans-Serif" font-size="10.00">1. Task / User Query</text>
<text text-anchor="middle" x="191" y="-678.5" font-family="Helvetica,sans-Serif" font-size="10.00">Example: find reviewers who mention X</text>
<text text-anchor="middle" x="191" y="-667.5" font-family="Helvetica,sans-Serif" font-size="10.00">Stored in WebArena config + runtime logs</text>
</g>
<!-- browsergym -->
<g id="node2" class="node">
<title>browsergym</title>
<path fill="#e0f2fe" stroke="#0284c7" d="M285.5,-508.5C285.5,-508.5 100.5,-508.5 100.5,-508.5 94.5,-508.5 88.5,-502.5 88.5,-496.5 88.5,-496.5 88.5,-475.5 88.5,-475.5 88.5,-469.5 94.5,-463.5 100.5,-463.5 100.5,-463.5 285.5,-463.5 285.5,-463.5 291.5,-463.5 297.5,-469.5 297.5,-475.5 297.5,-475.5 297.5,-496.5 297.5,-496.5 297.5,-502.5 291.5,-508.5 285.5,-508.5"/>
<text text-anchor="middle" x="193" y="-494.5" font-family="Helvetica,sans-Serif" font-size="10.00">2. BrowserGym Environment</text>
<text text-anchor="middle" x="193" y="-483.5" font-family="Helvetica,sans-Serif" font-size="10.00">Starts task, opens EC2&#45;hosted website,</text>
<text text-anchor="middle" x="193" y="-472.5" font-family="Helvetica,sans-Serif" font-size="10.00">returns observation + reward at end</text>
</g>
<!-- user_query&#45;&gt;browsergym -->
<g id="edge1" class="edge">
<title>user_query&#45;&gt;browsergym</title>
<path fill="none" stroke="#475569" d="M191.23,-658.24C191.58,-623.68 192.28,-556.19 192.69,-517.05"/>
<polygon fill="#475569" stroke="#475569" points="195.49,-516.71 192.78,-508.68 189.89,-516.66 195.49,-516.71"/>
</g>
<!-- observation -->
<g id="node3" class="node">
<title>observation</title>
<path fill="#ecfeff" stroke="#0891b2" d="M295.5,-369.5C295.5,-369.5 90.5,-369.5 90.5,-369.5 84.5,-369.5 78.5,-363.5 78.5,-357.5 78.5,-357.5 78.5,-336.5 78.5,-336.5 78.5,-330.5 84.5,-324.5 90.5,-324.5 90.5,-324.5 295.5,-324.5 295.5,-324.5 301.5,-324.5 307.5,-330.5 307.5,-336.5 307.5,-336.5 307.5,-357.5 307.5,-357.5 307.5,-363.5 301.5,-369.5 295.5,-369.5"/>
<text text-anchor="middle" x="193" y="-355.5" font-family="Helvetica,sans-Serif" font-size="10.00">3. Observation Builder</text>
<text text-anchor="middle" x="193" y="-344.5" font-family="Helvetica,sans-Serif" font-size="10.00">DOM + accessibility tree + visible text</text>
<text text-anchor="middle" x="193" y="-333.5" font-family="Helvetica,sans-Serif" font-size="10.00">+ clickable element IDs + previous actions</text>
</g>
<!-- browsergym&#45;&gt;observation -->
<g id="edge2" class="edge">
<title>browsergym&#45;&gt;observation</title>
<path fill="none" stroke="#475569" d="M193,-463.29C193,-440.24 193,-403.66 193,-377.89"/>
<polygon fill="#475569" stroke="#475569" points="195.8,-377.61 193,-369.61 190.2,-377.61 195.8,-377.61"/>
</g>
<!-- retrieval_request -->
<g id="node4" class="node">
<title>retrieval_request</title>
<path fill="#fef3c7" stroke="#d97706" d="M296,-230.5C296,-230.5 92,-230.5 92,-230.5 86,-230.5 80,-224.5 80,-218.5 80,-218.5 80,-197.5 80,-197.5 80,-191.5 86,-185.5 92,-185.5 92,-185.5 296,-185.5 296,-185.5 302,-185.5 308,-191.5 308,-197.5 308,-197.5 308,-218.5 308,-218.5 308,-224.5 302,-230.5 296,-230.5"/>
<text text-anchor="middle" x="194" y="-216.5" font-family="Helvetica,sans-Serif" font-size="10.00">4. Retrieval Request</text>
<text text-anchor="middle" x="194" y="-205.5" font-family="Helvetica,sans-Serif" font-size="10.00">Input = site + goal + compact observation</text>
<text text-anchor="middle" x="194" y="-194.5" font-family="Helvetica,sans-Serif" font-size="10.00">Goal: find reusable procedure advice</text>
</g>
<!-- observation&#45;&gt;retrieval_request -->
<g id="edge3" class="edge">
<title>observation&#45;&gt;retrieval_request</title>
<path fill="none" stroke="#475569" d="M193.16,-324.29C193.33,-301.24 193.59,-264.66 193.78,-238.89"/>
<polygon fill="#475569" stroke="#475569" points="196.58,-238.63 193.84,-230.61 190.98,-238.59 196.58,-238.63"/>
</g>
<!-- candidate_filter -->
<g id="node11" class="node">
<title>candidate_filter</title>
<path fill="#fef3c7" stroke="#d97706" d="M1450.5,-508.5C1450.5,-508.5 1259.5,-508.5 1259.5,-508.5 1253.5,-508.5 1247.5,-502.5 1247.5,-496.5 1247.5,-496.5 1247.5,-475.5 1247.5,-475.5 1247.5,-469.5 1253.5,-463.5 1259.5,-463.5 1259.5,-463.5 1450.5,-463.5 1450.5,-463.5 1456.5,-463.5 1462.5,-469.5 1462.5,-475.5 1462.5,-475.5 1462.5,-496.5 1462.5,-496.5 1462.5,-502.5 1456.5,-508.5 1450.5,-508.5"/>
<text text-anchor="middle" x="1355" y="-494.5" font-family="Helvetica,sans-Serif" font-size="10.00">5. Candidate Filter</text>
<text text-anchor="middle" x="1355" y="-483.5" font-family="Helvetica,sans-Serif" font-size="10.00">Load same&#45;site procedures from SQLite</text>
<text text-anchor="middle" x="1355" y="-472.5" font-family="Helvetica,sans-Serif" font-size="10.00">Optionally filter by task family/template</text>
</g>
<!-- retrieval_request&#45;&gt;candidate_filter -->
<g id="edge4" class="edge">
<title>retrieval_request&#45;&gt;candidate_filter</title>
<path fill="none" stroke="#475569" d="M308.14,-214.57C520.09,-226.07 966,-256.1 1110,-311 1112.94,-312.12 1250.52,-410.32 1318.19,-458.68"/>
<polygon fill="#475569" stroke="#475569" points="1316.77,-461.11 1324.91,-463.48 1320.03,-456.55 1316.77,-461.11"/>
</g>
<!-- sqlite_procedures -->
<g id="node5" class="node">
<title>sqlite_procedures</title>
<path fill="#dcfce7" stroke="#16a34a" d="M2749,-547C2749,-547 2625,-547 2625,-547 2619,-547 2613,-541 2613,-535 2613,-535 2613,-437 2613,-437 2613,-431 2619,-425 2625,-425 2625,-425 2749,-425 2749,-425 2755,-425 2761,-431 2761,-437 2761,-437 2761,-535 2761,-535 2761,-541 2755,-547 2749,-547"/>
<text text-anchor="middle" x="2687" y="-533" font-family="Helvetica,sans-Serif" font-size="10.00">SQLite: procedures table</text>
<text text-anchor="middle" x="2687" y="-522" font-family="Helvetica,sans-Serif" font-size="10.00">Stores full procedure_json:</text>
<text text-anchor="middle" x="2687" y="-511" font-family="Helvetica,sans-Serif" font-size="10.00">&#45; goal pattern</text>
<text text-anchor="middle" x="2687" y="-500" font-family="Helvetica,sans-Serif" font-size="10.00">&#45; task family</text>
<text text-anchor="middle" x="2687" y="-489" font-family="Helvetica,sans-Serif" font-size="10.00">&#45; action skeleton</text>
<text text-anchor="middle" x="2687" y="-478" font-family="Helvetica,sans-Serif" font-size="10.00">&#45; step intents</text>
<text text-anchor="middle" x="2687" y="-467" font-family="Helvetica,sans-Serif" font-size="10.00">&#45; target/value policies</text>
<text text-anchor="middle" x="2687" y="-456" font-family="Helvetica,sans-Serif" font-size="10.00">&#45; success checks</text>
<text text-anchor="middle" x="2687" y="-445" font-family="Helvetica,sans-Serif" font-size="10.00">&#45; answer format</text>
<text text-anchor="middle" x="2687" y="-434" font-family="Helvetica,sans-Serif" font-size="10.00">&#45; success/failure counts</text>
</g>
<!-- sqlite_procedures&#45;&gt;candidate_filter -->
<g id="edge5" class="edge">
<title>sqlite_procedures&#45;&gt;candidate_filter</title>
<path fill="none" stroke="#475569" d="M2654.24,-547.05C2639.69,-567.81 2620.49,-588.62 2597,-600 2507.01,-643.61 1795.71,-616.02 1697,-600 1593.94,-583.28 1479.97,-539.94 1413.07,-511.78"/>
<polygon fill="#475569" stroke="#475569" points="1414.01,-509.13 1405.55,-508.59 1411.83,-514.29 1414.01,-509.13"/>
<text text-anchor="middle" x="1796" y="-625.8" font-family="Helvetica,sans-Serif" font-size="9.00">load stored procedures</text>
</g>
<!-- sqlite_edges -->
<g id="node6" class="node">
<title>sqlite_edges</title>
<path fill="#f0fdf4" stroke="#15803d" d="M2138.5,-536C2138.5,-536 1995.5,-536 1995.5,-536 1989.5,-536 1983.5,-530 1983.5,-524 1983.5,-524 1983.5,-448 1983.5,-448 1983.5,-442 1989.5,-436 1995.5,-436 1995.5,-436 2138.5,-436 2138.5,-436 2144.5,-436 2150.5,-442 2150.5,-448 2150.5,-448 2150.5,-524 2150.5,-524 2150.5,-530 2144.5,-536 2138.5,-536"/>
<text text-anchor="middle" x="2067" y="-522" font-family="Helvetica,sans-Serif" font-size="10.00">SQLite: procedure_edges table</text>
<text text-anchor="middle" x="2067" y="-511" font-family="Helvetica,sans-Serif" font-size="10.00">Stores graph relationships:</text>
<text text-anchor="middle" x="2067" y="-500" font-family="Helvetica,sans-Serif" font-size="10.00">family &#45;&gt; procedure</text>
<text text-anchor="middle" x="2067" y="-489" font-family="Helvetica,sans-Serif" font-size="10.00">procedure &#45;&gt; step</text>
<text text-anchor="middle" x="2067" y="-478" font-family="Helvetica,sans-Serif" font-size="10.00">step &#45;&gt; action</text>
<text text-anchor="middle" x="2067" y="-467" font-family="Helvetica,sans-Serif" font-size="10.00">step &#45;&gt; check</text>
<text text-anchor="middle" x="2067" y="-456" font-family="Helvetica,sans-Serif" font-size="10.00">procedure &#45;&gt; strategy</text>
<text text-anchor="middle" x="2067" y="-445" font-family="Helvetica,sans-Serif" font-size="10.00">procedure &#45;&gt; outcome</text>
</g>
<!-- graph_reasoning -->
<g id="node14" class="node">
<title>graph_reasoning</title>
<path fill="#f0fdf4" stroke="#16a34a" d="M1677.5,-375C1677.5,-375 1488.5,-375 1488.5,-375 1482.5,-375 1476.5,-369 1476.5,-363 1476.5,-363 1476.5,-331 1476.5,-331 1476.5,-325 1482.5,-319 1488.5,-319 1488.5,-319 1677.5,-319 1677.5,-319 1683.5,-319 1689.5,-325 1689.5,-331 1689.5,-331 1689.5,-363 1689.5,-363 1689.5,-369 1683.5,-375 1677.5,-375"/>
<text text-anchor="middle" x="1583" y="-361" font-family="Helvetica,sans-Serif" font-size="10.00">8. Graph Reasoning</text>
<text text-anchor="middle" x="1583" y="-350" font-family="Helvetica,sans-Serif" font-size="10.00">Positive edges boost trust:</text>
<text text-anchor="middle" x="1583" y="-339" font-family="Helvetica,sans-Serif" font-size="10.00">family, strategy, steps, checks, success</text>
<text text-anchor="middle" x="1583" y="-328" font-family="Helvetica,sans-Serif" font-size="10.00">Failure edges reduce trust</text>
</g>
<!-- sqlite_edges&#45;&gt;graph_reasoning -->
<g id="edge9" class="edge">
<title>sqlite_edges&#45;&gt;graph_reasoning</title>
<path fill="none" stroke="#475569" d="M2003.07,-435.85C1991.52,-428.65 1979.25,-422 1967,-417 1919.27,-397.52 1792.53,-376.81 1697.62,-363.22"/>
<polygon fill="#475569" stroke="#475569" points="1698.01,-360.45 1689.7,-362.09 1697.22,-365.99 1698.01,-360.45"/>
<text text-anchor="middle" x="1950" y="-397.8" font-family="Helvetica,sans-Serif" font-size="9.00">graph edges</text>
</g>
<!-- sqlite_negative -->
<g id="node7" class="node">
<title>sqlite_negative</title>
<path fill="#fee2e2" stroke="#dc2626" d="M2363.5,-530.5C2363.5,-530.5 2194.5,-530.5 2194.5,-530.5 2188.5,-530.5 2182.5,-524.5 2182.5,-518.5 2182.5,-518.5 2182.5,-453.5 2182.5,-453.5 2182.5,-447.5 2188.5,-441.5 2194.5,-441.5 2194.5,-441.5 2363.5,-441.5 2363.5,-441.5 2369.5,-441.5 2375.5,-447.5 2375.5,-453.5 2375.5,-453.5 2375.5,-518.5 2375.5,-518.5 2375.5,-524.5 2369.5,-530.5 2363.5,-530.5"/>
<text text-anchor="middle" x="2279" y="-516.5" font-family="Helvetica,sans-Serif" font-size="10.00">SQLite: negative_memory table</text>
<text text-anchor="middle" x="2279" y="-505.5" font-family="Helvetica,sans-Serif" font-size="10.00">Stores failed patterns:</text>
<text text-anchor="middle" x="2279" y="-494.5" font-family="Helvetica,sans-Serif" font-size="10.00">&#45; abstract failure</text>
<text text-anchor="middle" x="2279" y="-483.5" font-family="Helvetica,sans-Serif" font-size="10.00">&#45; avoid rules</text>
<text text-anchor="middle" x="2279" y="-472.5" font-family="Helvetica,sans-Serif" font-size="10.00">&#45; family</text>
<text text-anchor="middle" x="2279" y="-461.5" font-family="Helvetica,sans-Serif" font-size="10.00">&#45; penalty</text>
<text text-anchor="middle" x="2279" y="-450.5" font-family="Helvetica,sans-Serif" font-size="10.00">Used to warn/penalize similar tasks</text>
</g>
<!-- score_features -->
<g id="node13" class="node">
<title>score_features</title>
<path fill="#f5f3ff" stroke="#6d28d9" d="M1551,-269C1551,-269 1445,-269 1445,-269 1439,-269 1433,-263 1433,-257 1433,-257 1433,-159 1433,-159 1433,-153 1439,-147 1445,-147 1445,-147 1551,-147 1551,-147 1557,-147 1563,-153 1563,-159 1563,-159 1563,-257 1563,-257 1563,-263 1557,-269 1551,-269"/>
<text text-anchor="middle" x="1498" y="-255" font-family="Helvetica,sans-Serif" font-size="10.00">7. Feature Scoring</text>
<text text-anchor="middle" x="1498" y="-244" font-family="Helvetica,sans-Serif" font-size="10.00">semantic similarity</text>
<text text-anchor="middle" x="1498" y="-233" font-family="Helvetica,sans-Serif" font-size="10.00">lexical overlap</text>
<text text-anchor="middle" x="1498" y="-222" font-family="Helvetica,sans-Serif" font-size="10.00">page activation</text>
<text text-anchor="middle" x="1498" y="-211" font-family="Helvetica,sans-Serif" font-size="10.00">site match</text>
<text text-anchor="middle" x="1498" y="-200" font-family="Helvetica,sans-Serif" font-size="10.00">past outcome</text>
<text text-anchor="middle" x="1498" y="-189" font-family="Helvetica,sans-Serif" font-size="10.00">graph score</text>
<text text-anchor="middle" x="1498" y="-178" font-family="Helvetica,sans-Serif" font-size="10.00">task&#45;family match</text>
<text text-anchor="middle" x="1498" y="-167" font-family="Helvetica,sans-Serif" font-size="10.00">action&#45;structure match</text>
<text text-anchor="middle" x="1498" y="-156" font-family="Helvetica,sans-Serif" font-size="10.00">negative penalty</text>
</g>
<!-- sqlite_negative&#45;&gt;score_features -->
<g id="edge10" class="edge">
<title>sqlite_negative&#45;&gt;score_features</title>
<path fill="none" stroke="#475569" d="M2213.23,-441.43C2198.39,-432.64 2182.45,-423.97 2167,-417 1958.95,-323.2 1696.49,-255.17 1571.15,-225.51"/>
<polygon fill="#475569" stroke="#475569" points="1571.52,-222.72 1563.09,-223.62 1570.23,-228.17 1571.52,-222.72"/>
<text text-anchor="middle" x="2079.5" y="-344.8" font-family="Helvetica,sans-Serif" font-size="9.00">penalties</text>
</g>
<!-- sqlite_retrieval -->
<g id="node8" class="node">
<title>sqlite_retrieval</title>
<path fill="#f1f5f9" stroke="#475569" d="M2568.5,-530.5C2568.5,-530.5 2419.5,-530.5 2419.5,-530.5 2413.5,-530.5 2407.5,-524.5 2407.5,-518.5 2407.5,-518.5 2407.5,-453.5 2407.5,-453.5 2407.5,-447.5 2413.5,-441.5 2419.5,-441.5 2419.5,-441.5 2568.5,-441.5 2568.5,-441.5 2574.5,-441.5 2580.5,-447.5 2580.5,-453.5 2580.5,-453.5 2580.5,-518.5 2580.5,-518.5 2580.5,-524.5 2574.5,-530.5 2568.5,-530.5"/>
<text text-anchor="middle" x="2494" y="-516.5" font-family="Helvetica,sans-Serif" font-size="10.00">SQLite: retrieval_events table</text>
<text text-anchor="middle" x="2494" y="-505.5" font-family="Helvetica,sans-Serif" font-size="10.00">Stores retrieval logs:</text>
<text text-anchor="middle" x="2494" y="-494.5" font-family="Helvetica,sans-Serif" font-size="10.00">&#45; selected memory</text>
<text text-anchor="middle" x="2494" y="-483.5" font-family="Helvetica,sans-Serif" font-size="10.00">&#45; raw candidates</text>
<text text-anchor="middle" x="2494" y="-472.5" font-family="Helvetica,sans-Serif" font-size="10.00">&#45; rejected candidates</text>
<text text-anchor="middle" x="2494" y="-461.5" font-family="Helvetica,sans-Serif" font-size="10.00">&#45; per&#45;feature scores</text>
<text text-anchor="middle" x="2494" y="-450.5" font-family="Helvetica,sans-Serif" font-size="10.00">Useful for debugging reuse rate</text>
</g>
<!-- embeddings_json -->
<g id="node9" class="node">
<title>embeddings_json</title>
<path fill="#ede9fe" stroke="#7c3aed" d="M1939,-508.5C1939,-508.5 1725,-508.5 1725,-508.5 1719,-508.5 1713,-502.5 1713,-496.5 1713,-496.5 1713,-475.5 1713,-475.5 1713,-469.5 1719,-463.5 1725,-463.5 1725,-463.5 1939,-463.5 1939,-463.5 1945,-463.5 1951,-469.5 1951,-475.5 1951,-475.5 1951,-496.5 1951,-496.5 1951,-502.5 1945,-508.5 1939,-508.5"/>
<text text-anchor="middle" x="1832" y="-494.5" font-family="Helvetica,sans-Serif" font-size="10.00">procedure_embeddings.json</text>
<text text-anchor="middle" x="1832" y="-483.5" font-family="Helvetica,sans-Serif" font-size="10.00">Stores compact procedure embeddings</text>
<text text-anchor="middle" x="1832" y="-472.5" font-family="Helvetica,sans-Serif" font-size="10.00">and searchable entries when fast mode is off</text>
</g>
<!-- semantic_search -->
<g id="node12" class="node">
<title>semantic_search</title>
<path fill="#ede9fe" stroke="#7c3aed" d="M1432.5,-375C1432.5,-375 1229.5,-375 1229.5,-375 1223.5,-375 1217.5,-369 1217.5,-363 1217.5,-363 1217.5,-331 1217.5,-331 1217.5,-325 1223.5,-319 1229.5,-319 1229.5,-319 1432.5,-319 1432.5,-319 1438.5,-319 1444.5,-325 1444.5,-331 1444.5,-331 1444.5,-363 1444.5,-363 1444.5,-369 1438.5,-375 1432.5,-375"/>
<text text-anchor="middle" x="1331" y="-361" font-family="Helvetica,sans-Serif" font-size="10.00">6. Semantic / Lexical Search</text>
<text text-anchor="middle" x="1331" y="-350" font-family="Helvetica,sans-Serif" font-size="10.00">Embedding similarity if enabled</text>
<text text-anchor="middle" x="1331" y="-339" font-family="Helvetica,sans-Serif" font-size="10.00">Fast mode: SQLite family + lexical overlap</text>
<text text-anchor="middle" x="1331" y="-328" font-family="Helvetica,sans-Serif" font-size="10.00">Find likely matching procedures</text>
</g>
<!-- embeddings_json&#45;&gt;semantic_search -->
<g id="edge6" class="edge">
<title>embeddings_json&#45;&gt;semantic_search</title>
<path fill="none" stroke="#475569" d="M1798.86,-463.42C1773.99,-448.2 1738.59,-428.54 1705,-417 1600.93,-381.24 1569.11,-395.52 1461,-375 1458.26,-374.48 1455.48,-373.95 1452.68,-373.41"/>
<polygon fill="#475569" stroke="#475569" points="1453.13,-370.64 1444.75,-371.86 1452.06,-376.14 1453.13,-370.64"/>
<text text-anchor="middle" x="1705.5" y="-397.8" font-family="Helvetica,sans-Serif" font-size="9.00">vectors if enabled</text>
</g>
<!-- result_logs -->
<g id="node10" class="node">
<title>result_logs</title>
<path fill="#fff7ed" stroke="#ea580c" d="M2974.5,-514C2974.5,-514 2805.5,-514 2805.5,-514 2799.5,-514 2793.5,-508 2793.5,-502 2793.5,-502 2793.5,-470 2793.5,-470 2793.5,-464 2799.5,-458 2805.5,-458 2805.5,-458 2974.5,-458 2974.5,-458 2980.5,-458 2986.5,-464 2986.5,-470 2986.5,-470 2986.5,-502 2986.5,-502 2986.5,-508 2980.5,-514 2974.5,-514"/>
<text text-anchor="middle" x="2890" y="-500" font-family="Helvetica,sans-Serif" font-size="10.00">results/webarena.* logs</text>
<text text-anchor="middle" x="2890" y="-489" font-family="Helvetica,sans-Serif" font-size="10.00">Stores raw execution traces:</text>
<text text-anchor="middle" x="2890" y="-478" font-family="Helvetica,sans-Serif" font-size="10.00">experiment.log, summary_info.json</text>
<text text-anchor="middle" x="2890" y="-467" font-family="Helvetica,sans-Serif" font-size="10.00">Used for later abstraction/ingestion</text>
</g>
<!-- llm_abstraction -->
<g id="node25" class="node">
<title>llm_abstraction</title>
<path fill="#faf5ff" stroke="#9333ea" d="M1086,-911.5C1086,-911.5 928,-911.5 928,-911.5 922,-911.5 916,-905.5 916,-899.5 916,-899.5 916,-812.5 916,-812.5 916,-806.5 922,-800.5 928,-800.5 928,-800.5 1086,-800.5 1086,-800.5 1092,-800.5 1098,-806.5 1098,-812.5 1098,-812.5 1098,-899.5 1098,-899.5 1098,-905.5 1092,-911.5 1086,-911.5"/>
<text text-anchor="middle" x="1007" y="-897.5" font-family="Helvetica,sans-Serif" font-size="10.00">18. LLM Abstraction</text>
<text text-anchor="middle" x="1007" y="-886.5" font-family="Helvetica,sans-Serif" font-size="10.00">Raw trace &#45;&gt; reusable procedure:</text>
<text text-anchor="middle" x="1007" y="-875.5" font-family="Helvetica,sans-Serif" font-size="10.00">&#45; general strategy</text>
<text text-anchor="middle" x="1007" y="-864.5" font-family="Helvetica,sans-Serif" font-size="10.00">&#45; abstract steps</text>
<text text-anchor="middle" x="1007" y="-853.5" font-family="Helvetica,sans-Serif" font-size="10.00">&#45; target policies</text>
<text text-anchor="middle" x="1007" y="-842.5" font-family="Helvetica,sans-Serif" font-size="10.00">&#45; value policies</text>
<text text-anchor="middle" x="1007" y="-831.5" font-family="Helvetica,sans-Serif" font-size="10.00">&#45; success checks</text>
<text text-anchor="middle" x="1007" y="-820.5" font-family="Helvetica,sans-Serif" font-size="10.00">&#45; answer format</text>
<text text-anchor="middle" x="1007" y="-809.5" font-family="Helvetica,sans-Serif" font-size="10.00">Failures &#45;&gt; avoid rules</text>
</g>
<!-- result_logs&#45;&gt;llm_abstraction -->
<g id="edge25" class="edge">
<title>result_logs&#45;&gt;llm_abstraction</title>
<path fill="none" stroke="#475569" d="M2874.35,-514.19C2855.44,-544.29 2820.65,-591.65 2777,-615 2483.11,-772.2 1434.88,-834.62 1106.27,-850.59"/>
<polygon fill="#475569" stroke="#475569" points="1106.02,-847.8 1098.17,-850.98 1106.29,-853.39 1106.02,-847.8"/>
<text text-anchor="middle" x="2708" y="-678.8" font-family="Helvetica,sans-Serif" font-size="9.00">read past run</text>
</g>
<!-- candidate_filter&#45;&gt;semantic_search -->
<g id="edge7" class="edge">
<title>candidate_filter&#45;&gt;semantic_search</title>
<path fill="none" stroke="#475569" d="M1351.2,-463.29C1347.43,-441.78 1341.59,-408.47 1337.16,-383.17"/>
<polygon fill="#475569" stroke="#475569" points="1339.92,-382.67 1335.78,-375.27 1334.4,-383.63 1339.92,-382.67"/>
</g>
<!-- semantic_search&#45;&gt;score_features -->
<g id="edge8" class="edge">
<title>semantic_search&#45;&gt;score_features</title>
<path fill="none" stroke="#475569" d="M1363.99,-318.93C1381.9,-304.24 1404.78,-285.48 1426.54,-267.63"/>
<polygon fill="#475569" stroke="#475569" points="1428.53,-269.61 1432.94,-262.37 1424.98,-265.28 1428.53,-269.61"/>
</g>
<!-- threshold -->
<g id="node15" class="node">
<title>threshold</title>
<path fill="#fefce8" stroke="#ca8a04" d="M1434.2,-103.81C1434.2,-103.81 1214.8,-63.19 1214.8,-63.19 1208.9,-62.09 1208.9,-59.91 1214.8,-58.81 1214.8,-58.81 1434.2,-18.19 1434.2,-18.19 1440.1,-17.09 1451.9,-17.09 1457.8,-18.19 1457.8,-18.19 1677.2,-58.81 1677.2,-58.81 1683.1,-59.91 1683.1,-62.09 1677.2,-63.19 1677.2,-63.19 1457.8,-103.81 1457.8,-103.81 1451.9,-104.91 1440.1,-104.91 1434.2,-103.81"/>
<text text-anchor="middle" x="1446" y="-69.5" font-family="Helvetica,sans-Serif" font-size="10.00">9. Threshold Gate</text>
<text text-anchor="middle" x="1446" y="-58.5" font-family="Helvetica,sans-Serif" font-size="10.00">If score &gt;= required threshold,</text>
<text text-anchor="middle" x="1446" y="-47.5" font-family="Helvetica,sans-Serif" font-size="10.00">retrieve memory. Otherwise LLM works alone.</text>
</g>
<!-- score_features&#45;&gt;threshold -->
<g id="edge12" class="edge">
<title>score_features&#45;&gt;threshold</title>
<path fill="none" stroke="#475569" d="M1476.4,-146.77C1472.14,-134.88 1467.71,-122.54 1463.6,-111.08"/>
<polygon fill="#475569" stroke="#475569" points="1466.15,-109.88 1460.81,-103.3 1460.88,-111.78 1466.15,-109.88"/>
</g>
<!-- graph_reasoning&#45;&gt;score_features -->
<g id="edge11" class="edge">
<title>graph_reasoning&#45;&gt;score_features</title>
<path fill="none" stroke="#475569" d="M1566.21,-318.93C1558.53,-306.56 1549.06,-291.29 1539.64,-276.12"/>
<polygon fill="#475569" stroke="#475569" points="1541.92,-274.49 1535.33,-269.16 1537.17,-277.44 1541.92,-274.49"/>
</g>
<!-- memory_card -->
<g id="node16" class="node">
<title>memory_card</title>
<path fill="#dcfce7" stroke="#16a34a" d="M522,-1264C522,-1264 344,-1264 344,-1264 338,-1264 332,-1258 332,-1252 332,-1252 332,-1209 332,-1209 332,-1203 338,-1197 344,-1197 344,-1197 522,-1197 522,-1197 528,-1197 534,-1203 534,-1209 534,-1209 534,-1252 534,-1252 534,-1258 528,-1264 522,-1264"/>
<text text-anchor="middle" x="433" y="-1250" font-family="Helvetica,sans-Serif" font-size="10.00">10A. Procedural Memory Card</text>
<text text-anchor="middle" x="433" y="-1239" font-family="Helvetica,sans-Serif" font-size="10.00">Compact advice injected into prompt:</text>
<text text-anchor="middle" x="433" y="-1228" font-family="Helvetica,sans-Serif" font-size="10.00">strategy, steps, target policies,</text>
<text text-anchor="middle" x="433" y="-1217" font-family="Helvetica,sans-Serif" font-size="10.00">success checks, answer format,</text>
<text text-anchor="middle" x="433" y="-1206" font-family="Helvetica,sans-Serif" font-size="10.00">negative warnings</text>
</g>
<!-- threshold&#45;&gt;memory_card -->
<g id="edge13" class="edge">
<title>threshold&#45;&gt;memory_card</title>
<path fill="none" stroke="#475569" d="M1641.36,-69.85C2066.15,-88.21 3036,-137.72 3036,-207 3036,-1073 3036,-1073 3036,-1073 3036,-1211.28 686.51,-1174.92 550,-1197 547.4,-1197.42 544.77,-1197.88 542.13,-1198.37"/>
<polygon fill="#475569" stroke="#475569" points="541.48,-1195.64 534.16,-1199.93 542.55,-1201.14 541.48,-1195.64"/>
<text text-anchor="middle" x="3046.5" y="-678.8" font-family="Helvetica,sans-Serif" font-size="9.00">pass</text>
</g>
<!-- no_memory -->
<g id="node17" class="node">
<title>no_memory</title>
<path fill="#fee2e2" stroke="#dc2626" d="M834,-1253C834,-1253 578,-1253 578,-1253 572,-1253 566,-1247 566,-1241 566,-1241 566,-1220 566,-1220 566,-1214 572,-1208 578,-1208 578,-1208 834,-1208 834,-1208 840,-1208 846,-1214 846,-1220 846,-1220 846,-1241 846,-1241 846,-1247 840,-1253 834,-1253"/>
<text text-anchor="middle" x="706" y="-1239" font-family="Helvetica,sans-Serif" font-size="10.00">10B. No Retrieved Memory</text>
<text text-anchor="middle" x="706" y="-1228" font-family="Helvetica,sans-Serif" font-size="10.00">Prompt contains only current task/page/action history</text>
<text text-anchor="middle" x="706" y="-1217" font-family="Helvetica,sans-Serif" font-size="10.00">Gemini solves from scratch</text>
</g>
<!-- threshold&#45;&gt;no_memory -->
<g id="edge14" class="edge">
<title>threshold&#45;&gt;no_memory</title>
<path fill="none" stroke="#475569" d="M1664.22,-65.67C2091.07,-73.54 3000.4,-93.95 3061,-126 3100.6,-146.94 3121,-162.2 3121,-207 3121,-1073 3121,-1073 3121,-1073 3121,-1126.36 3106.91,-1149.8 3061,-1177 3013.42,-1205.19 1363.6,-1223.24 854.25,-1228.14"/>
<polygon fill="#475569" stroke="#475569" points="854.07,-1225.35 846.09,-1228.22 854.12,-1230.94 854.07,-1225.35"/>
<text text-anchor="middle" x="3127.5" y="-678.8" font-family="Helvetica,sans-Serif" font-size="9.00">fail</text>
</g>
<!-- prompt -->
<g id="node18" class="node">
<title>prompt</title>
<path fill="#faf5ff" stroke="#9333ea" d="M560,-1105.5C560,-1105.5 350,-1105.5 350,-1105.5 344,-1105.5 338,-1099.5 338,-1093.5 338,-1093.5 338,-1050.5 338,-1050.5 338,-1044.5 344,-1038.5 350,-1038.5 350,-1038.5 560,-1038.5 560,-1038.5 566,-1038.5 572,-1044.5 572,-1050.5 572,-1050.5 572,-1093.5 572,-1093.5 572,-1099.5 566,-1105.5 560,-1105.5"/>
<text text-anchor="middle" x="455" y="-1091.5" font-family="Helvetica,sans-Serif" font-size="10.00">11. Final LLM Prompt</text>
<text text-anchor="middle" x="455" y="-1080.5" font-family="Helvetica,sans-Serif" font-size="10.00">Task + observation + action space</text>
<text text-anchor="middle" x="455" y="-1069.5" font-family="Helvetica,sans-Serif" font-size="10.00">+ previous actions + memory card</text>
<text text-anchor="middle" x="455" y="-1058.5" font-family="Helvetica,sans-Serif" font-size="10.00">Instruction: use memory as policy checklist,</text>
<text text-anchor="middle" x="455" y="-1047.5" font-family="Helvetica,sans-Serif" font-size="10.00">not old hardcoded element IDs</text>
</g>
<!-- memory_card&#45;&gt;prompt -->
<g id="edge15" class="edge">
<title>memory_card&#45;&gt;prompt</title>
<path fill="none" stroke="#475569" d="M437.61,-1196.69C441,-1172.59 445.63,-1139.69 449.25,-1113.88"/>
<polygon fill="#475569" stroke="#475569" points="452.05,-1114.08 450.39,-1105.76 446.51,-1113.3 452.05,-1114.08"/>
</g>
<!-- no_memory&#45;&gt;prompt -->
<g id="edge16" class="edge">
<title>no_memory&#45;&gt;prompt</title>
<path fill="none" stroke="#475569" d="M671.36,-1207.9C630.86,-1182.65 563.14,-1140.42 514.24,-1109.93"/>
<polygon fill="#475569" stroke="#475569" points="515.43,-1107.38 507.16,-1105.52 512.47,-1112.13 515.43,-1107.38"/>
</g>
<!-- llm -->
<g id="node19" class="node">
<title>llm</title>
<path fill="#ede9fe" stroke="#7c3aed" d="M564,-997.5C564,-997.5 346,-997.5 346,-997.5 340,-997.5 334,-991.5 334,-985.5 334,-985.5 334,-964.5 334,-964.5 334,-958.5 340,-952.5 346,-952.5 346,-952.5 564,-952.5 564,-952.5 570,-952.5 576,-958.5 576,-964.5 576,-964.5 576,-985.5 576,-985.5 576,-991.5 570,-997.5 564,-997.5"/>
<text text-anchor="middle" x="455" y="-983.5" font-family="Helvetica,sans-Serif" font-size="10.00">12. Gemini 2.5 Pro</text>
<text text-anchor="middle" x="455" y="-972.5" font-family="Helvetica,sans-Serif" font-size="10.00">Chooses next high&#45;level action:</text>
<text text-anchor="middle" x="455" y="-961.5" font-family="Helvetica,sans-Serif" font-size="10.00">click/fill/scroll/hover/select/send_msg_to_user</text>
</g>
<!-- prompt&#45;&gt;llm -->
<g id="edge17" class="edge">
<title>prompt&#45;&gt;llm</title>
<path fill="none" stroke="#475569" d="M455,-1038.31C455,-1027.82 455,-1016.27 455,-1005.99"/>
<polygon fill="#475569" stroke="#475569" points="457.8,-1005.71 455,-997.71 452.2,-1005.71 457.8,-1005.71"/>
</g>
<!-- guard -->
<g id="node20" class="node">
<title>guard</title>
<path fill="#f1f5f9" stroke="#475569" d="M522.5,-889.5C522.5,-889.5 387.5,-889.5 387.5,-889.5 381.5,-889.5 375.5,-883.5 375.5,-877.5 375.5,-877.5 375.5,-834.5 375.5,-834.5 375.5,-828.5 381.5,-822.5 387.5,-822.5 387.5,-822.5 522.5,-822.5 522.5,-822.5 528.5,-822.5 534.5,-828.5 534.5,-834.5 534.5,-834.5 534.5,-877.5 534.5,-877.5 534.5,-883.5 528.5,-889.5 522.5,-889.5"/>
<text text-anchor="middle" x="455" y="-875.5" font-family="Helvetica,sans-Serif" font-size="10.00">13. Guardrails</text>
<text text-anchor="middle" x="455" y="-864.5" font-family="Helvetica,sans-Serif" font-size="10.00">Parse action format</text>
<text text-anchor="middle" x="455" y="-853.5" font-family="Helvetica,sans-Serif" font-size="10.00">Repair missing action blocks</text>
<text text-anchor="middle" x="455" y="-842.5" font-family="Helvetica,sans-Serif" font-size="10.00">Loop detection</text>
<text text-anchor="middle" x="455" y="-831.5" font-family="Helvetica,sans-Serif" font-size="10.00">Max steps/retries</text>
</g>
<!-- llm&#45;&gt;guard -->
<g id="edge18" class="edge">
<title>llm&#45;&gt;guard</title>
<path fill="none" stroke="#475569" d="M455,-952.27C455,-937.02 455,-916.18 455,-897.87"/>
<polygon fill="#475569" stroke="#475569" points="457.8,-897.67 455,-889.67 452.2,-897.67 457.8,-897.67"/>
</g>
<!-- playwright -->
<g id="node21" class="node">
<title>playwright</title>
<path fill="#e0f2fe" stroke="#0284c7" d="M563.5,-709C563.5,-709 346.5,-709 346.5,-709 340.5,-709 334.5,-703 334.5,-697 334.5,-697 334.5,-665 334.5,-665 334.5,-659 340.5,-653 346.5,-653 346.5,-653 563.5,-653 563.5,-653 569.5,-653 575.5,-659 575.5,-665 575.5,-665 575.5,-697 575.5,-697 575.5,-703 569.5,-709 563.5,-709"/>
<text text-anchor="middle" x="455" y="-695" font-family="Helvetica,sans-Serif" font-size="10.00">14. BrowserGym + Playwright</text>
<text text-anchor="middle" x="455" y="-684" font-family="Helvetica,sans-Serif" font-size="10.00">Executes action on live browser</text>
<text text-anchor="middle" x="455" y="-673" font-family="Helvetica,sans-Serif" font-size="10.00">Waits/retries through navigation/page loading</text>
<text text-anchor="middle" x="455" y="-662" font-family="Helvetica,sans-Serif" font-size="10.00">Returns next observation</text>
</g>
<!-- guard&#45;&gt;playwright -->
<g id="edge19" class="edge">
<title>guard&#45;&gt;playwright</title>
<path fill="none" stroke="#475569" d="M455,-822.46C455,-792.58 455,-748.39 455,-717.58"/>
<polygon fill="#475569" stroke="#475569" points="457.8,-717.27 455,-709.27 452.2,-717.27 457.8,-717.27"/>
</g>
<!-- playwright&#45;&gt;browsergym -->
<g id="edge23" class="edge">
<title>playwright&#45;&gt;browsergym</title>
<path fill="none" stroke="#475569" d="M386.05,-652.97C371.93,-646.83 357.32,-640.04 344,-633 288.83,-603.86 239.96,-548.46 213.61,-514.91"/>
<polygon fill="#475569" stroke="#475569" points="215.76,-513.11 208.64,-508.51 211.33,-516.55 215.76,-513.11"/>
<text text-anchor="middle" x="395.5" y="-625.8" font-family="Helvetica,sans-Serif" font-size="9.00">browser state changes</text>
</g>
<!-- done -->
<g id="node22" class="node">
<title>done</title>
<path fill="#fefce8" stroke="#ca8a04" d="M443.48,-500.64C443.48,-500.64 404.85,-489.36 404.85,-489.36 399.09,-487.68 399.09,-484.32 404.85,-482.64 404.85,-482.64 443.48,-471.36 443.48,-471.36 449.24,-469.68 460.76,-469.68 466.52,-471.36 466.52,-471.36 505.15,-482.64 505.15,-482.64 510.91,-484.32 510.91,-487.68 505.15,-489.36 505.15,-489.36 466.52,-500.64 466.52,-500.64 460.76,-502.32 449.24,-502.32 443.48,-500.64"/>
<text text-anchor="middle" x="455" y="-483.5" font-family="Helvetica,sans-Serif" font-size="10.00">15. Done?</text>
</g>
<!-- playwright&#45;&gt;done -->
<g id="edge20" class="edge">
<title>playwright&#45;&gt;done</title>
<path fill="none" stroke="#475569" d="M455,-652.76C455,-615.34 455,-548.55 455,-512.22"/>
<polygon fill="#475569" stroke="#475569" points="457.8,-512.1 455,-504.1 452.2,-512.1 457.8,-512.1"/>
</g>
<!-- done&#45;&gt;observation -->
<g id="edge21" class="edge">
<title>done&#45;&gt;observation</title>
<path fill="none" stroke="#475569" d="M434,-474.02C392.55,-452.34 299.22,-403.54 241.63,-373.43"/>
<polygon fill="#475569" stroke="#475569" points="242.83,-370.9 234.45,-369.67 240.24,-375.86 242.83,-370.9"/>
<text text-anchor="middle" x="331.5" y="-397.8" font-family="Helvetica,sans-Serif" font-size="9.00">no, next step</text>
</g>
<!-- evaluator -->
<g id="node23" class="node">
<title>evaluator</title>
<path fill="#dbeafe" stroke="#2563eb" d="M1054.5,-1100C1054.5,-1100 891.5,-1100 891.5,-1100 885.5,-1100 879.5,-1094 879.5,-1088 879.5,-1088 879.5,-1056 879.5,-1056 879.5,-1050 885.5,-1044 891.5,-1044 891.5,-1044 1054.5,-1044 1054.5,-1044 1060.5,-1044 1066.5,-1050 1066.5,-1056 1066.5,-1056 1066.5,-1088 1066.5,-1088 1066.5,-1094 1060.5,-1100 1054.5,-1100"/>
<text text-anchor="middle" x="973" y="-1086" font-family="Helvetica,sans-Serif" font-size="10.00">16. WebArena Evaluation</text>
<text text-anchor="middle" x="973" y="-1075" font-family="Helvetica,sans-Serif" font-size="10.00">Reads final browser state / answer</text>
<text text-anchor="middle" x="973" y="-1064" font-family="Helvetica,sans-Serif" font-size="10.00">Outputs reward, error, truncation,</text>
<text text-anchor="middle" x="973" y="-1053" font-family="Helvetica,sans-Serif" font-size="10.00">steps, elapsed time</text>
</g>
<!-- done&#45;&gt;evaluator -->
<g id="edge22" class="edge">
<title>done&#45;&gt;evaluator</title>
<path fill="none" stroke="#475569" d="M488.53,-494.3C560.64,-512.17 724,-565.33 724,-680 724,-976 724,-976 724,-976 724,-984.82 812.3,-1016.82 883.73,-1041.27"/>
<polygon fill="#475569" stroke="#475569" points="882.99,-1043.98 891.47,-1043.91 884.8,-1038.68 882.99,-1043.98"/>
<text text-anchor="middle" x="732" y="-853.8" font-family="Helvetica,sans-Serif" font-size="9.00">yes</text>
</g>
<!-- raw_trace -->
<g id="node24" class="node">
<title>raw_trace</title>
<path fill="#fff7ed" stroke="#ea580c" d="M1086,-997.5C1086,-997.5 882,-997.5 882,-997.5 876,-997.5 870,-991.5 870,-985.5 870,-985.5 870,-964.5 870,-964.5 870,-958.5 876,-952.5 882,-952.5 882,-952.5 1086,-952.5 1086,-952.5 1092,-952.5 1098,-958.5 1098,-964.5 1098,-964.5 1098,-985.5 1098,-985.5 1098,-991.5 1092,-997.5 1086,-997.5"/>
<text text-anchor="middle" x="984" y="-983.5" font-family="Helvetica,sans-Serif" font-size="10.00">17. Raw Trace Saved</text>
<text text-anchor="middle" x="984" y="-972.5" font-family="Helvetica,sans-Serif" font-size="10.00">experiment.log captures thoughts/actions</text>
<text text-anchor="middle" x="984" y="-961.5" font-family="Helvetica,sans-Serif" font-size="10.00">summary_info.json captures metrics/result</text>
</g>
<!-- evaluator&#45;&gt;raw_trace -->
<g id="edge24" class="edge">
<title>evaluator&#45;&gt;raw_trace</title>
<path fill="none" stroke="#475569" d="M976.15,-1043.78C977.52,-1031.93 979.14,-1018 980.54,-1005.87"/>
<polygon fill="#475569" stroke="#475569" points="983.34,-1006.07 981.48,-997.8 977.77,-1005.43 983.34,-1006.07"/>
</g>
<!-- raw_trace&#45;&gt;result_logs -->
<g id="edge26" class="edge">
<title>raw_trace&#45;&gt;result_logs</title>
<path fill="none" stroke="#475569" d="M1098.31,-974.68C1445.31,-974.66 2479.19,-958.56 2747,-771.5 2833.1,-711.36 2870.16,-583.81 2883.55,-522.02"/>
<polygon fill="#475569" stroke="#475569" points="2886.31,-522.51 2885.21,-514.1 2880.83,-521.35 2886.31,-522.51"/>
</g>
<!-- raw_trace&#45;&gt;llm_abstraction -->
<g id="edge27" class="edge">
<title>raw_trace&#45;&gt;llm_abstraction</title>
<path fill="none" stroke="#475569" d="M988.27,-952.27C990.11,-942.92 992.36,-931.48 994.65,-919.8"/>
<polygon fill="#475569" stroke="#475569" points="997.45,-920.09 996.25,-911.7 991.96,-919.01 997.45,-920.09"/>
</g>
<!-- upsert_memory -->
<g id="node26" class="node">
<title>upsert_memory</title>
<path fill="#dcfce7" stroke="#16a34a" d="M1086,-709C1086,-709 930,-709 930,-709 924,-709 918,-703 918,-697 918,-697 918,-665 918,-665 918,-659 924,-653 930,-653 930,-653 1086,-653 1086,-653 1092,-653 1098,-659 1098,-665 1098,-665 1098,-697 1098,-697 1098,-703 1092,-709 1086,-709"/>
<text text-anchor="middle" x="1008" y="-695" font-family="Helvetica,sans-Serif" font-size="10.00">19. Upsert Memory</text>
<text text-anchor="middle" x="1008" y="-684" font-family="Helvetica,sans-Serif" font-size="10.00">Success: update/insert procedure</text>
<text text-anchor="middle" x="1008" y="-673" font-family="Helvetica,sans-Serif" font-size="10.00">Failure: insert negative memory</text>
<text text-anchor="middle" x="1008" y="-662" font-family="Helvetica,sans-Serif" font-size="10.00">Update success/failure stats</text>
</g>
<!-- llm_abstraction&#45;&gt;upsert_memory -->
<g id="edge28" class="edge">
<title>llm_abstraction&#45;&gt;upsert_memory</title>
<path fill="none" stroke="#475569" d="M1007.32,-800.26C1007.47,-773.17 1007.66,-741.24 1007.8,-717.39"/>
<polygon fill="#475569" stroke="#475569" points="1010.6,-717.33 1007.84,-709.32 1005,-717.3 1010.6,-717.33"/>
</g>
<!-- upsert_memory&#45;&gt;sqlite_procedures -->
<g id="edge29" class="edge">
<title>upsert_memory&#45;&gt;sqlite_procedures</title>
<path fill="none" stroke="#475569" d="M1098.37,-679.77C1295.45,-678.53 1778.52,-671.44 2181,-633 2210.53,-630.18 2217.44,-625.57 2247,-623 2266.38,-621.32 2579.84,-624.16 2597,-615 2622.08,-601.61 2641.7,-577.77 2656.13,-554.27"/>
<polygon fill="#475569" stroke="#475569" points="2658.57,-555.63 2660.25,-547.33 2653.76,-552.77 2658.57,-555.63"/>
</g>
<!-- upsert_memory&#45;&gt;sqlite_negative -->
<g id="edge30" class="edge">
<title>upsert_memory&#45;&gt;sqlite_negative</title>
<path fill="none" stroke="#475569" d="M1098.12,-671.21C1235.55,-658.19 1505.85,-634.14 1736,-623 1759.92,-621.84 2145.28,-625.1 2167,-615 2201.95,-598.75 2230.38,-565.79 2249.85,-537.39"/>
<polygon fill="#475569" stroke="#475569" points="2252.23,-538.86 2254.36,-530.66 2247.58,-535.74 2252.23,-538.86"/>
</g>
<!-- upsert_memory&#45;&gt;sqlite_retrieval -->
<g id="edge33" class="edge">
<title>upsert_memory&#45;&gt;sqlite_retrieval</title>
<path fill="none" stroke="#475569" stroke-dasharray="1,5" d="M1098.36,-674.81C1319.17,-662.2 1881.81,-630.39 2070,-623 2087.88,-622.3 2375.98,-622.97 2392,-615 2424.96,-598.61 2450.67,-566.04 2468.04,-537.86"/>
<polygon fill="#475569" stroke="#475569" points="2470.56,-539.1 2472.28,-530.8 2465.76,-536.22 2470.56,-539.1"/>
<text text-anchor="middle" x="2123.5" y="-625.8" font-family="Helvetica,sans-Serif" font-size="9.00">retrieval already logged</text>
</g>
<!-- update_graph -->
<g id="node27" class="node">
<title>update_graph</title>
<path fill="#f0fdf4" stroke="#15803d" d="M1081,-536C1081,-536 935,-536 935,-536 929,-536 923,-530 923,-524 923,-524 923,-448 923,-448 923,-442 929,-436 935,-436 935,-436 1081,-436 1081,-436 1087,-436 1093,-442 1093,-448 1093,-448 1093,-524 1093,-524 1093,-530 1087,-536 1081,-536"/>
<text text-anchor="middle" x="1008" y="-522" font-family="Helvetica,sans-Serif" font-size="10.00">20. Update Graph</text>
<text text-anchor="middle" x="1008" y="-511" font-family="Helvetica,sans-Serif" font-size="10.00">Create edges:</text>
<text text-anchor="middle" x="1008" y="-500" font-family="Helvetica,sans-Serif" font-size="10.00">family contains procedure</text>
<text text-anchor="middle" x="1008" y="-489" font-family="Helvetica,sans-Serif" font-size="10.00">procedure next_step step</text>
<text text-anchor="middle" x="1008" y="-478" font-family="Helvetica,sans-Serif" font-size="10.00">step executes action</text>
<text text-anchor="middle" x="1008" y="-467" font-family="Helvetica,sans-Serif" font-size="10.00">step verifies check</text>
<text text-anchor="middle" x="1008" y="-456" font-family="Helvetica,sans-Serif" font-size="10.00">procedure leads_to outcome</text>
<text text-anchor="middle" x="1008" y="-445" font-family="Helvetica,sans-Serif" font-size="10.00">procedure has_failure negative</text>
</g>
<!-- upsert_memory&#45;&gt;update_graph -->
<g id="edge31" class="edge">
<title>upsert_memory&#45;&gt;update_graph</title>
<path fill="none" stroke="#475569" d="M1008,-652.76C1008,-624.76 1008,-580.34 1008,-544.52"/>
<polygon fill="#475569" stroke="#475569" points="1010.8,-544.09 1008,-536.09 1005.2,-544.09 1010.8,-544.09"/>
</g>
<!-- update_graph&#45;&gt;sqlite_edges -->
<g id="edge32" class="edge">
<title>update_graph&#45;&gt;sqlite_edges</title>
<path fill="none" stroke="#475569" d="M1055.15,-536.09C1091.68,-571.01 1145.6,-614.68 1203,-634 1242.39,-647.25 1913.32,-651.53 1951,-634 1990.24,-615.74 2019.95,-576.71 2039.47,-543.31"/>
<polygon fill="#475569" stroke="#475569" points="2041.95,-544.61 2043.48,-536.27 2037.09,-541.84 2041.95,-544.61"/>
</g>
<!-- update_index -->
<g id="node28" class="node">
<title>update_index</title>
<path fill="#ede9fe" stroke="#7c3aed" d="M1070,-375C1070,-375 890,-375 890,-375 884,-375 878,-369 878,-363 878,-363 878,-331 878,-331 878,-325 884,-319 890,-319 890,-319 1070,-319 1070,-319 1076,-319 1082,-325 1082,-331 1082,-331 1082,-363 1082,-363 1082,-369 1076,-375 1070,-375"/>
<text text-anchor="middle" x="980" y="-361" font-family="Helvetica,sans-Serif" font-size="10.00">21. Update Search Index</text>
<text text-anchor="middle" x="980" y="-350" font-family="Helvetica,sans-Serif" font-size="10.00">Compact text is embedded and saved</text>
<text text-anchor="middle" x="980" y="-339" font-family="Helvetica,sans-Serif" font-size="10.00">or fast&#45;mode lexical cache is ready</text>
<text text-anchor="middle" x="980" y="-328" font-family="Helvetica,sans-Serif" font-size="10.00">Next query can reuse this memory</text>
</g>
<!-- update_graph&#45;&gt;update_index -->
<g id="edge34" class="edge">
<title>update_graph&#45;&gt;update_index</title>
<path fill="none" stroke="#475569" d="M997.97,-435.93C994.42,-418.54 990.49,-399.32 987.22,-383.3"/>
<polygon fill="#475569" stroke="#475569" points="989.91,-382.52 985.57,-375.24 984.43,-383.64 989.91,-382.52"/>
</g>
<!-- update_index&#45;&gt;retrieval_request -->
<g id="edge36" class="edge">
<title>update_index&#45;&gt;retrieval_request</title>
<path fill="none" stroke="#475569" stroke-dasharray="5,2" d="M877.65,-328.16C733.37,-303.01 470.59,-257.21 316.24,-230.31"/>
<polygon fill="#475569" stroke="#475569" points="316.42,-227.5 308.06,-228.88 315.46,-233.01 316.42,-227.5"/>
<text text-anchor="middle" x="743" y="-291.8" font-family="Helvetica,sans-Serif" font-size="9.00">future task reuse</text>
</g>
<!-- update_index&#45;&gt;embeddings_json -->
<g id="edge35" class="edge">
<title>update_index&#45;&gt;embeddings_json</title>
<path fill="none" stroke="#475569" d="M1061.96,-375.07C1100.64,-386.57 1147.72,-398.74 1191,-405 1247.54,-413.17 1649.76,-402.45 1705,-417 1737.25,-425.49 1770.36,-443.58 1794.68,-458.97"/>
<polygon fill="#475569" stroke="#475569" points="1793.38,-461.46 1801.62,-463.44 1796.41,-456.76 1793.38,-461.46"/>
</g>
</g>
</svg>
