<?xml version="1.0" encoding="UTF-8" standalone="no"?>
<!DOCTYPE svg PUBLIC "-//W3C//DTD SVG 1.1//EN"
 "http://www.w3.org/Graphics/SVG/1.1/DTD/svg11.dtd">
<!-- Generated by graphviz version 2.43.0 (0)
 -->
<!-- Title: SingleProcedure Pages: 1 -->
<svg width="5302pt" height="288pt"
 viewBox="0.00 0.00 5302.00 288.00" xmlns="http://www.w3.org/2000/svg" xmlns:xlink="http://www.w3.org/1999/xlink">
<g id="graph0" class="graph" transform="scale(1 1) rotate(0) translate(4 284)">
<title>SingleProcedure</title>
<polygon fill="white" stroke="transparent" points="-4,4 -4,-284 5298,-284 5298,4 -4,4"/>
<text text-anchor="middle" x="2647" y="-261.6" font-family="Helvetica,sans-Serif" font-size="18.00">Single Stored Workflow Example: shopping.template_214.click_send_msg_to_user</text>
<!-- shopping.template_214.click_send_msg_to_user -->
<g id="node1" class="node">
<title>shopping.template_214.click_send_msg_to_user</title>
<path fill="#dbeafe" stroke="#2563eb" d="M1694,-181C1694,-181 550,-181 550,-181 544,-181 538,-175 538,-169 538,-169 538,-157 538,-157 538,-151 544,-145 550,-145 550,-145 1694,-145 1694,-145 1700,-145 1706,-151 1706,-157 1706,-157 1706,-169 1706,-169 1706,-175 1700,-181 1694,-181"/>
<text text-anchor="middle" x="1122" y="-160.5" font-family="Helvetica,sans-Serif" font-size="10.00">PROCEDURE\nshopping.template_214.click_send_msg_to_user\nsuccess=4 failure=0\nfamily=order_lookup\naction skeleton=click &#45;&gt; send_msg_to_user\ngoal=Find the total cost of the latest order\nwith status not equal to {{status}}</text>
</g>
<!-- strategy:Navigate to the &#39;My Account&#39;\\npage. In the order history\\ntable, find the first order\\nwho... -->
<g id="node4" class="node">
<title>strategy:Navigate to the &#39;My Account&#39;\\npage. In the order history\\ntable, find the first order\\nwho...</title>
<path fill="#ecfccb" stroke="#65a30d" d="M2750,-252C2750,-252 1846,-252 1846,-252 1840,-252 1834,-246 1834,-240 1834,-240 1834,-228 1834,-228 1834,-222 1840,-216 1846,-216 1846,-216 2750,-216 2750,-216 2756,-216 2762,-222 2762,-228 2762,-228 2762,-240 2762,-240 2762,-246 2756,-252 2750,-252"/>
<text text-anchor="middle" x="2298" y="-231.5" font-family="Helvetica,sans-Serif" font-size="10.00">GENERAL STRATEGY\nNavigate to the &#39;My Account&#39; page. In the\norder history table, find the first order\nwhose status is not the specified one (e.g.,\n&#39;Canceled&#39;) and extract its total cost.</text>
</g>
<!-- shopping.template_214.click_send_msg_to_user&#45;&gt;strategy:Navigate to the &#39;My Account&#39;\\npage. In the order history\\ntable, find the first order\\nwho... -->
<g id="edge3" class="edge">
<title>shopping.template_214.click_send_msg_to_user&#45;&gt;strategy:Navigate to the &#39;My Account&#39;\\npage. In the order history\\ntable, find the first order\\nwho...</title>
<path fill="none" stroke="#475569" d="M1410.12,-181C1539.62,-189.06 1694.5,-198.62 1834,-207 1880.44,-209.79 1929.51,-212.7 1977.65,-215.53"/>
<polygon fill="#475569" stroke="#475569" points="1977.53,-218.32 1985.68,-216 1977.85,-212.73 1977.53,-218.32"/>
<text text-anchor="middle" x="1770" y="-207.8" font-family="Helvetica,sans-Serif" font-size="9.00">uses_strategy</text>
</g>
<!-- answer_format:Return the numeric total cost\\nvalue, without currency symbols. -->
<g id="node5" class="node">
<title>answer_format:Return the numeric total cost\\nvalue, without currency symbols.</title>
<path fill="#f5f3ff" stroke="#7c3aed" d="M2500,-198C2500,-198 2096,-198 2096,-198 2090,-198 2084,-192 2084,-186 2084,-186 2084,-174 2084,-174 2084,-168 2090,-162 2096,-162 2096,-162 2500,-162 2500,-162 2506,-162 2512,-168 2512,-174 2512,-174 2512,-186 2512,-186 2512,-192 2506,-198 2500,-198"/>
<text text-anchor="middle" x="2298" y="-177.5" font-family="Helvetica,sans-Serif" font-size="10.00">ANSWER FORMAT\nReturn the numeric total cost value, without\ncurrency symbols.</text>
</g>
<!-- shopping.template_214.click_send_msg_to_user&#45;&gt;answer_format:Return the numeric total cost\\nvalue, without currency symbols. -->
<g id="edge4" class="edge">
<title>shopping.template_214.click_send_msg_to_user&#45;&gt;answer_format:Return the numeric total cost\\nvalue, without currency symbols.</title>
<path fill="none" stroke="#475569" d="M1706.13,-171.44C1837.86,-173.35 1969.84,-175.26 2075.55,-176.79"/>
<polygon fill="#475569" stroke="#475569" points="2075.72,-179.6 2083.76,-176.91 2075.8,-174 2075.72,-179.6"/>
<text text-anchor="middle" x="1770" y="-175.8" font-family="Helvetica,sans-Serif" font-size="9.00">formats_answer_as</text>
</g>
<!-- shopping.template_214.click_send_msg_to_user:step:1:click -->
<g id="node7" class="node">
<title>shopping.template_214.click_send_msg_to_user:step:1:click</title>
<path fill="#ecfdf5" stroke="#059669" d="M2701,-144C2701,-144 1895,-144 1895,-144 1889,-144 1883,-138 1883,-132 1883,-132 1883,-120 1883,-120 1883,-114 1889,-108 1895,-108 1895,-108 2701,-108 2701,-108 2707,-108 2713,-114 2713,-120 2713,-120 2713,-132 2713,-132 2713,-138 2707,-144 2701,-144"/>
<text text-anchor="middle" x="2298" y="-123.5" font-family="Helvetica,sans-Serif" font-size="10.00">STEP 1: click\nintent=Navigate to the account page to view order\nhistory.\ntarget policy=Link with text &#39;My Account&#39;.\nvalue policy=N/A\nraw old action=click(&#39;177&#39;)</text>
</g>
<!-- shopping.template_214.click_send_msg_to_user&#45;&gt;shopping.template_214.click_send_msg_to_user:step:1:click -->
<g id="edge5" class="edge">
<title>shopping.template_214.click_send_msg_to_user&#45;&gt;shopping.template_214.click_send_msg_to_user:step:1:click</title>
<path fill="none" stroke="#475569" d="M1694.52,-144.99C1755.23,-143.07 1816.16,-141.15 1874.71,-139.31"/>
<polygon fill="#475569" stroke="#475569" points="1875.05,-142.1 1882.95,-139.05 1874.87,-136.5 1875.05,-142.1"/>
<text text-anchor="middle" x="1770" y="-145.8" font-family="Helvetica,sans-Serif" font-size="9.00">next_step / contains</text>
</g>
<!-- failure_recovery:avoid -->
<g id="node13" class="node">
<title>failure_recovery:avoid</title>
<path fill="#fee2e2" stroke="#dc2626" d="M2588,-90C2588,-90 2008,-90 2008,-90 2002,-90 1996,-84 1996,-78 1996,-78 1996,-66 1996,-66 1996,-60 2002,-54 2008,-54 2008,-54 2588,-54 2588,-54 2594,-54 2600,-60 2600,-66 2600,-66 2600,-78 2600,-78 2600,-84 2594,-90 2588,-90"/>
<text text-anchor="middle" x="2298" y="-69.5" font-family="Helvetica,sans-Serif" font-size="10.00">AVOID / RECOVERY\nDo not select the first order in the list if\nits status matches the excluded status (e.g.,\n&#39;Canceled&#39;).</text>
</g>
<!-- shopping.template_214.click_send_msg_to_user&#45;&gt;failure_recovery:avoid -->
<g id="edge12" class="edge">
<title>shopping.template_214.click_send_msg_to_user&#45;&gt;failure_recovery:avoid</title>
<path fill="none" stroke="#475569" d="M1305.53,-144.97C1449.08,-131.19 1654.17,-112.33 1834,-99 1883.64,-95.32 1936.3,-91.84 1987.63,-88.68"/>
<polygon fill="#475569" stroke="#475569" points="1988.05,-91.46 1995.86,-88.18 1987.71,-85.87 1988.05,-91.46"/>
<text text-anchor="middle" x="1770" y="-109.8" font-family="Helvetica,sans-Serif" font-size="9.00">avoid</text>
</g>
<!-- family:order_lookup -->
<g id="node2" class="node">
<title>family:order_lookup</title>
<path fill="#fef3c7" stroke="#d97706" d="M387,-208C387,-208 74,-208 74,-208 68,-208 62,-202 62,-196 62,-196 62,-184 62,-184 62,-178 68,-172 74,-172 74,-172 387,-172 387,-172 393,-172 399,-178 399,-184 399,-184 399,-196 399,-196 399,-202 393,-208 387,-208"/>
<text text-anchor="middle" x="230.5" y="-187.5" font-family="Helvetica,sans-Serif" font-size="10.00">TASK FAMILY\norder_lookup\nUsed to prevent wrong&#45;family reuse</text>
</g>
<!-- family:order_lookup&#45;&gt;shopping.template_214.click_send_msg_to_user -->
<g id="edge1" class="edge">
<title>family:order_lookup&#45;&gt;shopping.template_214.click_send_msg_to_user</title>
<path fill="none" stroke="#475569" d="M399.07,-184.91C438.56,-183.71 482.91,-182.37 529.69,-180.95"/>
<polygon fill="#475569" stroke="#475569" points="529.92,-183.74 537.83,-180.7 529.75,-178.15 529.92,-183.74"/>
<text text-anchor="middle" x="499.5" y="-184.8" font-family="Helvetica,sans-Serif" font-size="9.00">contains</text>
</g>
<!-- intent:Find the total cost of the latest\\norder with status not equal to\\n{{status}} -->
<g id="node3" class="node">
<title>intent:Find the total cost of the latest\\norder with status not equal to\\n{{status}}</title>
<path fill="#ffedd5" stroke="#ea580c" d="M449,-154C449,-154 12,-154 12,-154 6,-154 0,-148 0,-142 0,-142 0,-130 0,-130 0,-124 6,-118 12,-118 12,-118 449,-118 449,-118 455,-118 461,-124 461,-130 461,-130 461,-142 461,-142 461,-148 455,-154 449,-154"/>
<text text-anchor="middle" x="230.5" y="-133.5" font-family="Helvetica,sans-Serif" font-size="10.00">GOAL PATTERN\nFind the total cost of the latest order with\nstatus not equal to {{status}}</text>
</g>
<!-- intent:Find the total cost of the latest\\norder with status not equal to\\n{{status}}&#45;&gt;shopping.template_214.click_send_msg_to_user -->
<g id="edge2" class="edge">
<title>intent:Find the total cost of the latest\\norder with status not equal to\\n{{status}}&#45;&gt;shopping.template_214.click_send_msg_to_user</title>
<path fill="none" stroke="#475569" d="M461.15,-142.97C483.23,-143.64 506.24,-144.34 529.88,-145.06"/>
<polygon fill="#475569" stroke="#475569" points="529.84,-147.86 537.92,-145.3 530.01,-142.26 529.84,-147.86"/>
<text text-anchor="middle" x="499.5" y="-146.8" font-family="Helvetica,sans-Serif" font-size="9.00">activates</text>
</g>
<!-- outcome:success -->
<g id="node6" class="node">
<title>outcome:success</title>
<path fill="#dcfce7" stroke="#16a34a" d="M5271,-144C5271,-144 5006,-144 5006,-144 5000,-144 4994,-138 4994,-132 4994,-132 4994,-120 4994,-120 4994,-114 5000,-108 5006,-108 5006,-108 5271,-108 5271,-108 5277,-108 5283,-114 5283,-120 5283,-120 5283,-132 5283,-132 5283,-138 5277,-144 5271,-144"/>
<text text-anchor="middle" x="5138.5" y="-123.5" font-family="Helvetica,sans-Serif" font-size="10.00">SUCCESS OUTCOME\nThis path previously solved tasks</text>
</g>
<!-- action:click -->
<g id="node8" class="node">
<title>action:click</title>
<path fill="#ede9fe" stroke="#7c3aed" d="M4007.5,-198C4007.5,-198 3788.5,-198 3788.5,-198 3782.5,-198 3776.5,-192 3776.5,-186 3776.5,-186 3776.5,-174 3776.5,-174 3776.5,-168 3782.5,-162 3788.5,-162 3788.5,-162 4007.5,-162 4007.5,-162 4013.5,-162 4019.5,-168 4019.5,-174 4019.5,-174 4019.5,-186 4019.5,-186 4019.5,-192 4013.5,-198 4007.5,-198"/>
<text text-anchor="middle" x="3898" y="-177.5" font-family="Helvetica,sans-Serif" font-size="10.00">ACTION TYPE\nclick\nSkeleton&#45;level operation</text>
</g>
<!-- shopping.template_214.click_send_msg_to_user:step:1:click&#45;&gt;action:click -->
<g id="edge6" class="edge">
<title>shopping.template_214.click_send_msg_to_user:step:1:click&#45;&gt;action:click</title>
<path fill="none" stroke="#475569" d="M2669.79,-144.01C2742.77,-147.25 2818.79,-150.42 2890,-153 3205.52,-164.44 3576.82,-173.17 3768.32,-177.33"/>
<polygon fill="#475569" stroke="#475569" points="3768.4,-180.13 3776.46,-177.5 3768.52,-174.53 3768.4,-180.13"/>
<text text-anchor="middle" x="2826" y="-153.8" font-family="Helvetica,sans-Serif" font-size="9.00">executes</text>
</g>
<!-- check:Page contains &#39;Recent Orders&#39;\\ntable. -->
<g id="node9" class="node">
<title>check:Page contains &#39;Recent Orders&#39;\\ntable.</title>
<path fill="#f0f9ff" stroke="#0284c7" d="M4029,-144C4029,-144 3767,-144 3767,-144 3761,-144 3755,-138 3755,-132 3755,-132 3755,-120 3755,-120 3755,-114 3761,-108 3767,-108 3767,-108 4029,-108 4029,-108 4035,-108 4041,-114 4041,-120 4041,-120 4041,-132 4041,-132 4041,-138 4035,-144 4029,-144"/>
<text text-anchor="middle" x="3898" y="-123.5" font-family="Helvetica,sans-Serif" font-size="10.00">SUCCESS CHECK\nPage contains &#39;Recent Orders&#39; table.</text>
</g>
<!-- shopping.template_214.click_send_msg_to_user:step:1:click&#45;&gt;check:Page contains &#39;Recent Orders&#39;\\ntable. -->
<g id="edge7" class="edge">
<title>shopping.template_214.click_send_msg_to_user:step:1:click&#45;&gt;check:Page contains &#39;Recent Orders&#39;\\ntable.</title>
<path fill="none" stroke="#475569" d="M2713.12,-126C3051.96,-126 3512.13,-126 3746.45,-126"/>
<polygon fill="#475569" stroke="#475569" points="3746.69,-128.8 3754.69,-126 3746.69,-123.2 3746.69,-128.8"/>
<text text-anchor="middle" x="2826" y="-128.8" font-family="Helvetica,sans-Serif" font-size="9.00">verifies</text>
</g>
<!-- shopping.template_214.click_send_msg_to_user:step:2:send_msg_to_user -->
<g id="node10" class="node">
<title>shopping.template_214.click_send_msg_to_user:step:2:send_msg_to_user</title>
<path fill="#ecfdf5" stroke="#059669" d="M4894,-90C4894,-90 2902,-90 2902,-90 2896,-90 2890,-84 2890,-78 2890,-78 2890,-66 2890,-66 2890,-60 2896,-54 2902,-54 2902,-54 4894,-54 4894,-54 4900,-54 4906,-60 4906,-66 4906,-66 4906,-78 4906,-78 4906,-84 4900,-90 4894,-90"/>
<text text-anchor="middle" x="3898" y="-69.5" font-family="Helvetica,sans-Serif" font-size="10.00">STEP 2: send_msg_to_user\nintent=Find the latest order with a status other\nthan &#39;{{status}}&#39; and report its total cost.\ntarget policy=In the &#39;Recent Orders&#39; table, find the first\nrow where the &#39;Status&#39; column text is not\n&#39;{{status}}&#39;. The target is the &#39;Order\nTotal&#39; cell in that row.\nvalue policy=The text content of the target cell,\nstripped of currency symbols.\nraw old action=send_msg_to_user(&#39;$754.99&#39;)</text>
</g>
<!-- shopping.template_214.click_send_msg_to_user:step:1:click&#45;&gt;shopping.template_214.click_send_msg_to_user:step:2:send_msg_to_user -->
<g id="edge8" class="edge">
<title>shopping.template_214.click_send_msg_to_user:step:1:click&#45;&gt;shopping.template_214.click_send_msg_to_user:step:2:send_msg_to_user</title>
<path fill="none" stroke="#475569" d="M2669.79,-107.99C2742.77,-104.75 2818.79,-101.58 2890,-99 2976.42,-95.87 3067.02,-92.94 3156.96,-90.25"/>
<polygon fill="#475569" stroke="#475569" points="3157.19,-93.04 3165.11,-90.01 3157.03,-87.45 3157.19,-93.04"/>
<text text-anchor="middle" x="2826" y="-105.8" font-family="Helvetica,sans-Serif" font-size="9.00">next_step / contains</text>
</g>
<!-- shopping.template_214.click_send_msg_to_user:step:2:send_msg_to_user&#45;&gt;outcome:success -->
<g id="edge11" class="edge">
<title>shopping.template_214.click_send_msg_to_user:step:2:send_msg_to_user&#45;&gt;outcome:success</title>
<path fill="none" stroke="#475569" d="M4760.68,-90.02C4809.86,-92.63 4858.57,-95.61 4906,-99 4934.04,-101.01 4963.91,-103.91 4992.55,-107.08"/>
<polygon fill="#475569" stroke="#475569" points="4992.33,-109.87 5000.59,-107.98 4992.95,-104.31 4992.33,-109.87"/>
<text text-anchor="middle" x="4944.5" y="-106.8" font-family="Helvetica,sans-Serif" font-size="9.00">leads_to</text>
</g>
<!-- action:send_msg_to_user -->
<g id="node11" class="node">
<title>action:send_msg_to_user</title>
<path fill="#ede9fe" stroke="#7c3aed" d="M5282,-90C5282,-90 4995,-90 4995,-90 4989,-90 4983,-84 4983,-78 4983,-78 4983,-66 4983,-66 4983,-60 4989,-54 4995,-54 4995,-54 5282,-54 5282,-54 5288,-54 5294,-60 5294,-66 5294,-66 5294,-78 5294,-78 5294,-84 5288,-90 5282,-90"/>
<text text-anchor="middle" x="5138.5" y="-69.5" font-family="Helvetica,sans-Serif" font-size="10.00">ACTION TYPE\nsend_msg_to_user\nSkeleton&#45;level operation</text>
</g>
<!-- shopping.template_214.click_send_msg_to_user:step:2:send_msg_to_user&#45;&gt;action:send_msg_to_user -->
<g id="edge9" class="edge">
<title>shopping.template_214.click_send_msg_to_user:step:2:send_msg_to_user&#45;&gt;action:send_msg_to_user</title>
<path fill="none" stroke="#475569" d="M4906,-72C4930.3,-72 4953.27,-72 4974.62,-72"/>
<polygon fill="#475569" stroke="#475569" points="4974.72,-74.8 4982.72,-72 4974.72,-69.2 4974.72,-74.8"/>
<text text-anchor="middle" x="4944.5" y="-74.8" font-family="Helvetica,sans-Serif" font-size="9.00">executes</text>
</g>
<!-- check:Task is complete. -->
<g id="node12" class="node">
<title>check:Task is complete.</title>
<path fill="#f0f9ff" stroke="#0284c7" d="M5223.5,-36C5223.5,-36 5053.5,-36 5053.5,-36 5047.5,-36 5041.5,-30 5041.5,-24 5041.5,-24 5041.5,-12 5041.5,-12 5041.5,-6 5047.5,0 5053.5,0 5053.5,0 5223.5,0 5223.5,0 5229.5,0 5235.5,-6 5235.5,-12 5235.5,-12 5235.5,-24 5235.5,-24 5235.5,-30 5229.5,-36 5223.5,-36"/>
<text text-anchor="middle" x="5138.5" y="-15.5" font-family="Helvetica,sans-Serif" font-size="10.00">SUCCESS CHECK\nTask is complete.</text>
</g>
<!-- shopping.template_214.click_send_msg_to_user:step:2:send_msg_to_user&#45;&gt;check:Task is complete. -->
<g id="edge10" class="edge">
<title>shopping.template_214.click_send_msg_to_user:step:2:send_msg_to_user&#45;&gt;check:Task is complete.</title>
<path fill="none" stroke="#475569" d="M4312.26,-53.98C4567.44,-42.86 4875.29,-29.43 5033.07,-22.55"/>
<polygon fill="#475569" stroke="#475569" points="5033.53,-25.34 5041.4,-22.19 5033.28,-19.74 5033.53,-25.34"/>
<text text-anchor="middle" x="4944.5" y="-30.8" font-family="Helvetica,sans-Serif" font-size="9.00">verifies</text>
</g>
</g>
</svg>
